<?xml version="1.0" encoding="UTF-8"?>
<svg id="Layer_1" data-name="Layer 1" xmlns="http://www.w3.org/2000/svg" xmlns:xlink="http://www.w3.org/1999/xlink" viewBox="0 0 98.48 89.5">
  <defs>
    <style>
      .cls-1 {
        fill: #dfe1e5;
      }

      .cls-2 {
        fill: url(#linear-gradient-3);
      }

      .cls-3 {
        fill: url(#linear-gradient-2);
      }

      .cls-4 {
        fill: url(#linear-gradient);
      }
    </style>
    <linearGradient id="linear-gradient" x1="1.71" y1="49.68" x2="98.48" y2="49.68" gradientUnits="userSpaceOnUse">
      <stop offset="0" stop-color="#042560"/>
      <stop offset="1" stop-color="#000"/>
    </linearGradient>
    <linearGradient id="linear-gradient-2" x1="0" y1="39.29" x2="92.81" y2="39.29" gradientUnits="userSpaceOnUse">
      <stop offset="0" stop-color="#d0d2d3"/>
      <stop offset="1" stop-color="#808184"/>
    </linearGradient>
    <linearGradient id="linear-gradient-3" x1="1.24" y1="-28.95" x2="53.82" y2="53.57" xlink:href="#linear-gradient"/>
  </defs>
  <path class="cls-4" d="M95.68,26.77l.13-.08-7.38-12.42-2.9,1.59c-.63-.4-1.28-.8-1.96-1.17-16.8-9.27-46.27-6.46-67.65,19.55-6.71,8.16-9.98,17.23-10.23,25.51l-3.99,2.19,6.12,10.14c4.81,6.93,11.07,11.92,17.76,14.92,13.84,6.21,44.3,1.45,61.97-20.96,11.05-14.02,13.63-28.4,8.13-39.27Z"/>
  <path class="cls-3" d="M10.25,24.38c-16.36,19.9-12.33,45.17,6.38,51.42,18.72,6.25,47.58,2.78,65.25-19.63,15.97-20.26,14.26-41.28-3.99-51.35C61.09-4.44,31.62-1.63,10.25,24.38Z"/>
  <path class="cls-1" d="M20.35,25.87c-14.39,15-14.53,32.99-.32,40.17,14.21,7.18,37.89,4.7,52.28-10.31,14.39-15,14.03-36.85-.18-44.03-14.21-7.18-37.39-.84-51.78,14.17Z"/>
  <path class="cls-2" d="M19.26,31.19c-9.78,11.39-10.57,22.11-5.46,29.91-6.47-8.87-7.29-22.02,2.77-33.75C30.3,11.35,51.47,2.81,71.89,11.5c-15.33-5.12-38.89,3.69-52.62,19.69Z"/>
</svg>