<?xml version="1.0" encoding="UTF-8"?>
<svg xmlns="http://www.w3.org/2000/svg" xmlns:xlink="http://www.w3.org/1999/xlink" viewBox="0 0 184.61 150.42">
  <defs>
    <style>
      .cls-1 {
        fill: #241d2f;
      }

      .cls-2 {
        fill: #312143;
      }

      .cls-3 {
        fill: url(#radial-gradient-2);
      }

      .cls-4 {
        fill: url(#linear-gradient-5);
      }

      .cls-5 {
        fill: url(#linear-gradient-6);
      }

      .cls-6 {
        fill: url(#linear-gradient-9);
      }

      .cls-7 {
        fill: url(#linear-gradient-3);
      }

      .cls-8 {
        fill: url(#radial-gradient);
      }

      .cls-9 {
        fill: url(#linear-gradient);
      }

      .cls-10 {
        isolation: isolate;
      }

      .cls-11 {
        fill: #b1b1b1;
      }

      .cls-12 {
        fill: url(#linear-gradient-8);
        opacity: .35;
      }

      .cls-13 {
        fill: url(#linear-gradient-2);
      }

      .cls-13, .cls-14, .cls-15 {
        mix-blend-mode: multiply;
        opacity: .2;
      }

      .cls-14 {
        fill: url(#linear-gradient-4);
      }

      .cls-15 {
        fill: url(#linear-gradient-7);
      }

      .cls-16 {
        fill: url(#linear-gradient-10);
      }

      .cls-17 {
        fill: url(#linear-gradient-11);
      }

      .cls-18 {
        fill: url(#linear-gradient-12);
      }

      .cls-19 {
        fill: url(#linear-gradient-13);
      }

      .cls-20 {
        fill: url(#linear-gradient-15);
      }

      .cls-21 {
        fill: url(#linear-gradient-16);
      }

      .cls-22 {
        fill: url(#linear-gradient-17);
      }

      .cls-23 {
        fill: url(#linear-gradient-18);
      }

      .cls-24 {
        fill: #faf9ff;
      }

      .cls-25 {
        fill: #f34a42;
      }

      .cls-26 {
        fill: url(#linear-gradient-14);
        mix-blend-mode: luminosity;
      }
    </style>
    <radialGradient id="radial-gradient" cx="156.12" cy="5.53" fx="156.12" fy="5.53" r="32.28" gradientUnits="userSpaceOnUse">
      <stop offset="0" stop-color="#f34a42"/>
      <stop offset="1" stop-color="#8b2838"/>
    </radialGradient>
    <linearGradient id="linear-gradient" x1="174.85" y1="55.94" x2="174.44" y2="87.26" gradientUnits="userSpaceOnUse">
      <stop offset="0" stop-color="#d0d2d3"/>
      <stop offset="1" stop-color="#808184"/>
    </linearGradient>
    <linearGradient id="linear-gradient-2" x1="175.61" y1="95.24" x2="175.45" y2="57.83" gradientUnits="userSpaceOnUse">
      <stop offset="0" stop-color="#0009ff"/>
      <stop offset="1" stop-color="#8b2838"/>
    </linearGradient>
    <linearGradient id="linear-gradient-3" x1="56.36" y1="53.49" x2="57.99" y2="99.84" xlink:href="#linear-gradient"/>
    <linearGradient id="linear-gradient-4" x1="57.54" y1="97.58" x2="57.37" y2="56.27" xlink:href="#linear-gradient-2"/>
    <linearGradient id="linear-gradient-5" x1="54.66" y1="51.86" x2="49.49" y2="112.99" gradientUnits="userSpaceOnUse">
      <stop offset="0" stop-color="#fff"/>
      <stop offset="1" stop-color="#d0d2d3"/>
    </linearGradient>
    <linearGradient id="linear-gradient-6" x1="55.26" y1="42.3" x2="168.96" y2="98.67" gradientUnits="userSpaceOnUse">
      <stop offset="0" stop-color="#f97f7d"/>
      <stop offset="1" stop-color="#8b2838"/>
    </linearGradient>
    <linearGradient id="linear-gradient-7" x1="151.36" y1="44.27" x2="74.3" y2="105.01" gradientUnits="userSpaceOnUse">
      <stop offset="0" stop-color="#8b2838"/>
      <stop offset=".47" stop-color="#f97f7d" stop-opacity="0"/>
      <stop offset="1" stop-color="#8b2838"/>
    </linearGradient>
    <linearGradient id="linear-gradient-8" x1="112.25" y1="-10.03" x2="124.33" y2="271.25" gradientUnits="userSpaceOnUse">
      <stop offset="0" stop-color="#f97f7d"/>
      <stop offset="1" stop-color="#fff"/>
    </linearGradient>
    <linearGradient id="linear-gradient-9" x1="75.8" y1="116.6" x2="76.84" y2="116.6" gradientUnits="userSpaceOnUse">
      <stop offset=".31" stop-color="#3a284f"/>
      <stop offset="1" stop-color="#000"/>
    </linearGradient>
    <linearGradient id="linear-gradient-10" x1="-1264.07" y1="-1304.73" x2="-1263.03" y2="-1304.73" gradientTransform="translate(-1166.55 -1236.15) rotate(-86.68) scale(1 -1)" xlink:href="#linear-gradient-9"/>
    <radialGradient id="radial-gradient-2" cx="62.01" cy="105.37" fx="62.01" fy="105.37" r="22.02" xlink:href="#radial-gradient"/>
    <linearGradient id="linear-gradient-11" x1="62.24" y1="108.37" x2="77.76" y2="108.37" gradientUnits="userSpaceOnUse">
      <stop offset="0" stop-color="#a6a8ab"/>
      <stop offset="1" stop-color="#f0f1f1"/>
    </linearGradient>
    <linearGradient id="linear-gradient-12" x1="183.51" y1="57.08" x2="184.75" y2="92.37" xlink:href="#linear-gradient-5"/>
    <linearGradient id="linear-gradient-13" x1="3.2" y1="144.03" x2="22.57" y2="111.67" xlink:href="#linear-gradient-9"/>
    <linearGradient id="linear-gradient-14" x1="122.35" y1="-14104.32" x2="65.83" y2="-14129.19" gradientTransform="translate(13955.77 -2212.57) rotate(-99.92)" gradientUnits="userSpaceOnUse">
      <stop offset="0" stop-color="#f97f7d"/>
      <stop offset="1" stop-color="#241d2f"/>
    </linearGradient>
    <linearGradient id="linear-gradient-15" x1="90.64" y1="-14114.55" x2="100.55" y2="-14114.55" gradientTransform="translate(13955.77 -2212.57) rotate(-99.92)" xlink:href="#linear-gradient-9"/>
    <linearGradient id="linear-gradient-16" x1="76.02" y1="167.96" x2="79.71" y2="165.08" gradientTransform="translate(-15.1 -47.19) rotate(-.78) scale(.99 .98) skewX(-1.23)" xlink:href="#linear-gradient-9"/>
    <linearGradient id="linear-gradient-17" x1="76.94" y1="167.17" x2="83.49" y2="162.08" gradientTransform="translate(-15.1 -47.19) rotate(-.78) scale(.99 .98) skewX(-1.23)" xlink:href="#linear-gradient-9"/>
    <linearGradient id="linear-gradient-18" x1="81.4" y1="163.52" x2="87.12" y2="159.08" gradientTransform="translate(-15.1 -47.19) rotate(-.78) scale(.99 .98) skewX(-1.23)" xlink:href="#linear-gradient-9"/>
  </defs>
  <g class="cls-10">
    <g id="Layer_1" data-name="Layer 1">
      <g>
        <g>
          <path class="cls-8" d="M153.5.81l-44.43,29.17,22.35,1.12,10.46.52,13.54.68,1.03-4.97,4.45-21.48c.88-4.23-3.8-7.41-7.41-5.04Z"/>
          <g>
            <polygon class="cls-9" points="184.61 56.18 184.61 84.18 183.35 84.57 183.24 84.6 181.24 85.23 169.9 88.77 164.78 90.37 164.78 50.89 183.35 55.85 184.61 56.18"/>
            <path class="cls-13" d="M181.25,85.21v.02s-11.35,3.54-11.35,3.54v-30.22c.18,6.79,4.46,27.53,11.35,26.66Z"/>
          </g>
          <g>
            <polygon class="cls-7" points="66.77 50.89 66.77 90.37 61.65 88.77 50.31 85.23 48.31 84.6 48.2 84.57 46.94 84.18 46.94 56.18 48.2 55.85 61.74 52.23 66.77 50.89"/>
            <path class="cls-14" d="M66.77,81.93v8.44l-5.12-1.6-11.34-3.54-2-.62-.12-.03v-7.95c4.09-18.1,13.44-19.61,13.44-19.61,0,0,2.96,13.43,5.14,24.91Z"/>
            <polygon class="cls-4" points="61.85 53.81 46.94 57.78 46.94 56.18 61.74 52.23 61.85 53.81"/>
          </g>
          <rect class="cls-25" x="61.47" y="25.64" width="108.64" height="93.33" rx="27.74" ry="27.74"/>
          <g>
            <path class="cls-5" d="M145.77,35.22h-59.96c-7.28,0-13.19,5.91-13.19,13.19v47.79c0,7.28,5.91,13.19,13.19,13.19h59.96c7.29,0,13.19-5.91,13.19-13.19v-47.79c0-7.29-5.91-13.19-13.19-13.19ZM155.08,97.02c0,4.99-4.05,9.04-9.04,9.04h-60.5c-4.99,0-9.04-4.05-9.04-9.04v-49.43c0-4.99,4.05-9.04,9.04-9.04h60.5c4.99,0,9.04,4.05,9.04,9.04v49.43Z"/>
            <rect class="cls-1" x="76.5" y="38.55" width="78.58" height="67.5" rx="9.04" ry="9.04"/>
          </g>
          <rect class="cls-15" x="76.5" y="38.55" width="78.58" height="67.5" rx="9.04" ry="9.04"/>
          <path class="cls-12" d="M144.08,25.64h-56.59c-14.37,0-26.02,11.65-26.02,26.02v41.29c0,14.37,11.65,26.02,26.02,26.02h56.59c14.37,0,26.02-11.65,26.02-26.02v-41.29c0-14.37-11.65-26.02-26.02-26.02ZM169.09,92.08c0,14.37-11.65,26.02-26.02,26.02h-54.56c-14.37,0-26.02-11.65-26.02-26.02v-39.54c0-14.37,11.65-26.02,26.02-26.02h54.56c14.37,0,26.02,11.65,26.02,26.02v39.54Z"/>
        </g>
        <g>
          <path class="cls-6" d="M75.8,116.88s.59.59.94.37-.27-1.36-.27-1.36l-.67.48v.51Z"/>
          <path class="cls-16" d="M62.54,101.31s-.55-.62-.32-.96,1.35.35,1.35.35l-.52.64-.51-.03Z"/>
          <path class="cls-3" d="M76.55,116.29l-4.87,3.9-.66.53-.07.06c-4.75,3.37-11.34,2.24-14.71-2.51-3.37-4.75-2.24-11.34,2.51-14.71l.16-.12.67-.48,3.54-2.56s3.19,1.75,7.46,7.3c4.26,5.54,5.97,8.59,5.97,8.59Z"/>
          <path class="cls-17" d="M77.74,116.39c-.26.68-1,.87-1,.87.46-.3-2.18-3.95-6.37-9.39-4.39-5.7-7.59-8.01-8.12-7.53,0,0,.24-.76.92-.86s3.76,1.61,8.36,7.6c4.6,5.99,6.47,8.66,6.22,9.31Z"/>
        </g>
        <polygon class="cls-18" points="184.61 56.19 183.35 55.85 183.35 84.57 184.61 84.18 184.61 56.19"/>
        <path class="cls-2" d="M42.19,120.42c3.82-.72,7.99-3.59,11.67-6.13.43-.3.85-.59,1.27-.87,0,0,1.85-1.15,4.4,2.75,1.92,2.93.49,4.44.49,4.44-.41.28-.82.56-1.24.85-4.39,3.02-9.36,6.45-14.99,7.51"/>
        <path class="cls-19" d="M27.36,131.47l1.92,7.72-6.43,4.46-15.05,3.13s9.35-9.12,10.05-15c2.83-12.65-17.85-21.13-17.85-21.13l13.17-4.33,10.88,6.23,5.32,18.69-2.01.23Z"/>
        <path class="cls-25" d="M0,110.65c8.49-10.5,25.49-15.31,36.56-7.01,10.27,7.71,16.16,26,7.83,37.11-7.88,10.5-24.94,12.34-36.58,6.03,0,0,16.14-3.38,17.5-15.72C27.65,109.65,0,110.65,0,110.65Z"/>
        <path class="cls-26" d="M24.66,99.46c4.26.22,8.38,1.54,11.9,4.18,10.27,7.71,16.16,26,7.83,37.11-5.6,7.46-15.84,10.56-25.47,9.45,9.13.59,18.52-2.56,23.8-9.6,8.33-11.11,2.44-29.4-7.83-37.11-3.06-2.29-6.57-3.58-10.22-4.03Z"/>
        <path class="cls-11" d="M33.22,117.13c-4.63.76-7.72,4.88-6.91,9.21.81,4.33,5.21,7.23,9.84,6.47s7.72-4.88,6.91-9.21-5.21-7.23-9.84-6.47Z"/>
        <path class="cls-24" d="M34.35,116.94c-4.63.76-7.72,4.88-6.91,9.21s5.21,7.23,9.84,6.47c4.63-.76,7.72-4.88,6.91-9.21-.81-4.33-5.21-7.23-9.84-6.47Z"/>
        <path class="cls-11" d="M35.05,119.47c1.75-.29,3.45.21,4.7,1.23.95.77,1.63,1.84,1.86,3.08.54,2.88-1.52,5.63-4.6,6.14-2.07.34-4.08-.42-5.33-1.84-.61-.69-1.04-1.53-1.22-2.47-.54-2.88,1.52-5.63,4.6-6.14Z"/>
        <path class="cls-20" d="M35.05,119.47c1.75-.29,3.45.21,4.7,1.23.61.69,1.04,1.53,1.22,2.47.54,2.88-1.52,5.63-4.6,6.14-1.75.29-3.45-.21-4.7-1.23-.61-.69-1.04-1.53-1.22-2.47-.54-2.88,1.52-5.63,4.6-6.14Z"/>
        <path class="cls-21" d="M62.85,113.94c-2.84-3.6-6.35-5.48-8.21-4.44-.11.41-.19.83-.25,1.26.1-.22.24-.41.42-.55.27-.21.62-.31,1.03-.31,1.69,0,4.34,1.76,6.47,4.47,1.95,2.48,3.08,5.23,2.86,6.99-.07.56-.27.98-.6,1.24-.05.04-.11.08-.17.11.34.02.68.01,1.02,0,.24-.34.39-.76.45-1.26.24-1.94-.94-4.88-3.01-7.5Z"/>
        <path class="cls-22" d="M66.61,110.91c-3.13-3.98-6.89-6.32-9.38-6.05-.53.06-1.01.24-1.41.55-.6.47-.97,1.18-1.08,2.13-.06.47-.05.98.02,1.53.18-.61.43-1.2.72-1.77.12-.59.38-1.04.77-1.34.04-.03.08-.06.13-.09.34-.22.77-.33,1.24-.33,1.11,0,2.53.57,4.01,1.58,1.49,1.01,3.04,2.46,4.43,4.22,2.54,3.22,4,6.79,3.72,9.09-.06.52-.22.95-.45,1.28-.1.15-.23.27-.37.38-.48.37-1.13.49-1.88.38-.58.13-1.16.2-1.74.23.81.33,1.57.5,2.25.5s1.31-.18,1.8-.57c.46-.35.78-.85.95-1.48.06-.2.1-.42.13-.65.3-2.47-1.21-6.25-3.86-9.61Z"/>
        <path class="cls-23" d="M70.24,107.92c-2.91-3.69-6.34-6.02-8.87-6.25-.89-.08-1.66.1-2.27.57-.55.43-.91,1.06-1.07,1.88.23-.2.47-.38.72-.56l.16-.12.15-.11c.13-.22.29-.4.47-.54.23-.18.49-.3.78-.37.2-.05.41-.07.64-.07,1.15,0,2.61.59,4.15,1.63,1.53,1.05,3.14,2.55,4.58,4.36,2.62,3.33,4.13,7.02,3.84,9.4-.07.55-.23,1-.48,1.34-.11.15-.23.28-.37.38-.13.1-.26.18-.41.24l-.59.47-.53.43s.07,0,.1,0c.72,0,1.35-.19,1.86-.58.55-.42.9-1.05,1.06-1.85.02-.11.04-.23.06-.35.03-.22.04-.44.04-.67,0-2.53-1.52-6.07-4.03-9.25Z"/>
      </g>
    </g>
  </g>
</svg>