<svg width="3178" height="3178" viewBox="0 0 3178 3178" fill="none" xmlns="http://www.w3.org/2000/svg">
<rect width="3178" height="3178" fill="#FF574B"/>
<path d="M2310.37 1574.67V1856.69C2310.37 1874.56 2309.44 1892.23 2307.59 1909.61C2302.72 1956.13 2291.44 2000.73 2274.7 2042.56C2200.94 2226.83 2020.67 2357 1810.04 2357H1230.77C954.449 2357 730.472 2133 730.472 1856.69V1574.67H991.532V1917.87C991.532 2023.76 1077.38 2109.57 1183.27 2109.57H1857.57C1863.49 2109.57 1869.35 2109.29 1875.14 2108.77C1946.9 2102.27 2007.26 2056.18 2034.2 1992.56C2043.94 1969.6 2049.31 1944.35 2049.31 1917.87V1574.67H2310.37Z" fill="white"/>
<path d="M2422.6 2357H1668.59L1924.92 2169.24L2044.93 2081.32L2200.29 1967.53L2251.21 2018.58L2471.27 2239.22C2514.6 2282.66 2483.91 2356.97 2422.63 2356.97L2422.6 2357Z" fill="white"/>
<path d="M995.147 1493.36V1214.37C995.147 1176.54 1025.77 1145.89 1063.56 1145.89H1323.14C1308.83 982.869 1172.04 855 1005.43 855C829.271 855 686.445 997.964 686.445 1174.29C686.445 1350.61 823.762 1487.97 995.147 1493.39V1493.36Z" fill="white"/>
<path d="M2039.38 1214.4V1493.39C2210.64 1487.32 2347.62 1346.78 2347.62 1174.32C2347.62 1001.86 2204.41 855 2027.77 855C1860.74 855 1723.58 982.882 1709.23 1145.91H1970.78C2008.67 1145.91 2039.38 1176.57 2039.38 1214.4Z" fill="white"/>
<path d="M1296.01 1704.82C1365.97 1704.82 1422.68 1648.11 1422.68 1578.15C1422.68 1508.19 1365.97 1451.47 1296.01 1451.47C1226.05 1451.47 1169.33 1508.19 1169.33 1578.15C1169.33 1648.11 1226.05 1704.82 1296.01 1704.82Z" fill="white"/>
<path d="M1744.15 1704.82C1814.11 1704.82 1870.82 1648.11 1870.82 1578.15C1870.82 1508.19 1814.11 1451.47 1744.15 1451.47C1674.19 1451.47 1617.47 1508.19 1617.47 1578.15C1617.47 1648.11 1674.19 1704.82 1744.15 1704.82Z" fill="white"/>
</svg>
