<svg width="1500" height="1500" viewBox="0 0 1500 1500" fill="none" xmlns="http://www.w3.org/2000/svg">
<style>
  /* Star eyes: pulse/sparkle */
  @keyframes star-pulse {
    0%, 100% { transform: scale(0.75); opacity: 0.7; }
    50%       { transform: scale(1.15); opacity: 1; }
  }
  #star-eye-left {
    transform-origin: 713px 752px;
    animation: star-pulse 1.2s ease-in-out infinite;
  }
  #star-eye-right {
    transform-origin: 884px 752px;
    animation: star-pulse 1.2s ease-in-out infinite;
    animation-delay: 0.3s;
  }

  /* Dollar signs: float up */
  @keyframes float-up {
    0%, 100% { transform: translateY(0px); }
    50%       { transform: translateY(-30px); }
  }
  #money-signs {
    transform-origin: 571px 397px;
    animation: float-up 2s ease-in-out infinite;
  }

  /* Left arm: wave */
  @keyframes wave-left {
    0%, 100% { transform: rotate(-5deg); }
    50%       { transform: rotate(5deg); }
  }
  #left-arm {
    transform-origin: 300px 700px;
    animation: wave-left 2.5s ease-in-out infinite;
  }

  /* Right arm: wave */
  @keyframes wave-right {
    0%, 100% { transform: rotate(0deg); }
    50%       { transform: rotate(8deg); }
  }
  #right-arm {
    transform-origin: 1090px 980px;
    animation: wave-right 2s ease-in-out infinite;
  }
</style>
<path d="M992.99 403.56L760.91 555.95L877.66 561.78L932.31 564.51L1003.06 568.04L1008.44 542.08L1031.7 429.87C1036.28 407.77 1011.85 391.16 992.99 403.55V403.56Z" fill="url(#paint0_radial_66_444)"/>
<path d="M1155.49 692.82V839.04L1148.92 841.1L1148.32 841.28L1137.9 844.54L1078.66 863.03L1051.9 871.37V665.18L1148.92 691.07L1155.49 692.82Z" fill="url(#paint1_linear_66_444)"/>
<path opacity="0.2" d="M1137.95 844.421L1137.89 844.531L1078.65 863.021V705.141C1079.6 740.621 1101.97 848.931 1137.94 844.421H1137.95Z" fill="url(#paint2_linear_66_444)" style="mix-blend-mode:multiply"/>
<path d="M539.93 665.18V871.37L513.17 863.03L453.93 844.54L443.51 841.28L442.91 841.1L436.34 839.04V692.82L442.91 691.07L513.66 672.19L539.93 665.18Z" fill="url(#paint3_linear_66_444)"/>
<path opacity="0.2" d="M539.93 827.291V871.381L513.17 863.031L453.93 844.541L443.5 841.281L442.9 841.101V799.591C464.27 705.061 513.09 697.141 513.09 697.141C513.09 697.141 528.56 767.311 539.93 827.291Z" fill="url(#paint4_linear_66_444)" style="mix-blend-mode:multiply"/>
<path d="M514.23 680.419L436.34 701.169V692.819L513.66 672.189L514.23 680.419Z" fill="url(#paint5_linear_66_444)"/>
<path d="M939.581 533.27H652.391C574.982 533.27 512.23 596.021 512.23 673.43V880.65C512.23 958.058 574.982 1020.81 652.391 1020.81H939.581C1016.99 1020.81 1079.74 958.058 1079.74 880.65V673.43C1079.74 596.021 1016.99 533.27 939.581 533.27Z" fill="#F34A42"/>
<path d="M952.58 583.32H639.39C601.34 583.32 570.49 614.17 570.49 652.22V901.86C570.49 939.91 601.34 970.76 639.39 970.76H952.58C990.64 970.76 1021.48 939.91 1021.48 901.86V652.22C1021.48 614.16 990.63 583.32 952.58 583.32ZM1001.22 906.15C1001.22 932.22 980.09 953.35 954.02 953.35H637.96C611.89 953.35 590.76 932.22 590.76 906.15V647.93C590.76 621.86 611.89 600.73 637.96 600.73H954.02C980.09 600.73 1001.22 621.86 1001.22 647.93V906.15Z" fill="url(#paint6_linear_66_444)"/>
<path d="M637.96 600.73H954.02C980.07 600.73 1001.22 621.88 1001.22 647.93V906.151C1001.22 932.201 980.07 953.35 954.02 953.35H637.96C611.91 953.35 590.76 932.201 590.76 906.151V647.93C590.76 621.88 611.91 600.73 637.96 600.73Z" fill="#241D2F"/>
<path opacity="0.2" d="M637.96 600.73H954.02C980.07 600.73 1001.22 621.88 1001.22 647.93V906.151C1001.22 932.201 980.07 953.35 954.02 953.35H637.96C611.91 953.35 590.76 932.201 590.76 906.151V647.93C590.76 621.88 611.91 600.73 637.96 600.73Z" fill="url(#paint7_linear_66_444)" style="mix-blend-mode:multiply"/>
<path opacity="0.35" d="M943.8 533.27H648.17C573.1 533.27 512.24 594.13 512.24 669.21V884.87C512.24 959.94 573.1 1020.81 648.17 1020.81H943.8C1018.88 1020.81 1079.74 959.94 1079.74 884.87V669.21C1079.74 594.13 1018.88 533.27 943.8 533.27ZM1074.45 880.32C1074.45 955.4 1013.59 1016.26 938.51 1016.26H653.48C578.4 1016.26 517.54 955.4 517.54 880.32V673.76C517.54 598.68 578.4 537.82 653.48 537.82H938.51C1013.59 537.82 1074.45 598.68 1074.45 673.76V880.32Z" fill="url(#paint8_linear_66_444)"/>
<path d="M1009.83 1008.6C1009.83 1008.6 1006.76 1011.67 1004.94 1010.55C1003.13 1009.43 1006.34 1003.43 1006.34 1003.43L1009.83 1005.94V1008.59V1008.6Z" fill="url(#paint9_linear_66_444)"/>
<path d="M1079.13 927.23C1079.13 927.23 1082.02 923.99 1080.8 922.24C1079.58 920.49 1073.77 924.05 1073.77 924.05L1076.48 927.39L1079.13 927.24V927.23Z" fill="url(#paint10_linear_66_444)"/>
<path d="M1112.04 1015.81C1129.63 990.969 1123.75 956.569 1098.91 938.979L1076.07 922.479C1076.07 922.479 1059.39 931.639 1037.12 960.589C1014.85 989.539 1005.95 1005.47 1005.95 1005.47L1035.21 1028.94C1060.05 1046.53 1094.45 1040.65 1112.04 1015.81Z" fill="url(#paint11_radial_66_444)"/>
<path d="M999.709 1006C1001.08 1009.54 1004.95 1010.55 1004.95 1010.55C1002.53 1009 1016.36 989.929 1038.24 961.479C1061.17 931.679 1077.89 919.619 1080.67 922.149C1080.67 922.149 1079.43 918.169 1075.86 917.659C1072.3 917.149 1056.24 926.059 1032.18 957.339C1008.13 988.609 998.379 1002.58 999.699 1006H999.709Z" fill="url(#paint12_linear_66_444)"/>
<path d="M1155.49 692.83L1148.92 691.07V841.09L1155.49 839.04V692.83Z" fill="url(#paint13_linear_66_444)"/>
<g id="right-arm">
<path d="M1183.26 1027.71C1163.29 1023.94 1141.5 1008.94 1122.28 995.71C1120.04 994.17 1117.83 992.65 1115.65 991.16C1115.65 991.16 1105.98 985.15 1092.64 1005.51C1082.6 1020.84 1090.06 1028.69 1090.06 1028.69C1092.19 1030.14 1094.34 1031.62 1096.53 1033.13C1119.46 1048.91 1145.45 1066.8 1174.84 1072.35" fill="#403B7E"/>
<path d="M1252.12 1094.86L1244.47 1131.77L1279.42 1153.1L1359 1168.07C1359 1168.07 1307.36 1124.45 1301.88 1096.32C1283.2 1035.82 1388.58 995.271 1388.58 995.271L1318.45 974.551L1263.56 1004.35L1241.53 1093.75L1252.12 1094.86Z" fill="url(#paint14_linear_66_444)"/>
<path d="M1388.58 995.271C1341 945.051 1250.67 922.031 1195.45 961.731C1144.19 998.591 1119.07 1086.1 1166.03 1139.22C1210.44 1189.46 1300.11 1198.26 1359 1168.07C1359 1168.07 1273.63 1151.92 1262.73 1092.9C1243.82 990.481 1388.58 995.271 1388.58 995.271Z" fill="#F34A42"/>
<path d="M1256.3 941.74C1234.14 942.82 1213.02 949.11 1195.45 961.74C1144.18 998.59 1119.06 1086.1 1166.03 1139.23C1197.59 1174.93 1252.02 1189.71 1302.01 1184.43C1254.51 1187.24 1204.46 1172.17 1174.73 1138.52C1127.76 1085.4 1152.87 997.89 1204.14 961.03C1219.4 950.06 1237.33 943.89 1256.3 941.74Z" fill="url(#paint15_linear_66_444)" style="mix-blend-mode:luminosity"/>
<path d="M1250.26 1067.04C1253.4 1044.71 1237.57 1024.02 1214.91 1020.83C1192.25 1017.64 1171.33 1033.16 1168.18 1055.49C1165.04 1077.82 1180.87 1098.51 1203.53 1101.7C1226.19 1104.89 1247.11 1089.37 1250.26 1067.04Z" fill="#B1B1B1"/>
<path d="M1244.73 1066.22C1247.87 1043.89 1232.05 1023.2 1209.39 1020.01C1186.72 1016.83 1165.8 1032.34 1162.66 1054.67C1159.52 1077 1175.34 1097.69 1198.01 1100.88C1220.67 1104.07 1241.59 1088.55 1244.73 1066.22Z" fill="#FAF9FF"/>
<path d="M1206.57 1033.14C1198 1031.9 1189.79 1034.69 1183.91 1040.07C1179.42 1044.13 1176.29 1049.72 1175.37 1056.12C1173.23 1070.98 1183.72 1084.8 1198.81 1086.98C1208.96 1088.44 1218.61 1084.26 1224.48 1076.83C1227.35 1073.23 1229.31 1068.85 1230.01 1064C1232.15 1049.14 1221.66 1035.32 1206.57 1033.14Z" fill="#B1B1B1"/>
<path d="M1206.57 1033.14C1198 1031.9 1189.79 1034.69 1183.91 1040.07C1181.04 1043.67 1179.08 1048.05 1178.38 1052.9C1176.24 1067.76 1186.72 1081.58 1201.82 1083.76C1210.39 1085 1218.6 1082.21 1224.48 1076.83C1227.35 1073.23 1229.31 1068.85 1230.01 1064C1232.15 1049.14 1221.66 1035.32 1206.57 1033.14Z" fill="url(#paint16_linear_66_444)"/>
<path d="M1061.8 1031.94C1062.12 1034.56 1062.9 1036.76 1064.14 1038.52C1065.91 1038.61 1067.68 1038.62 1069.46 1038.54C1069.14 1038.38 1068.85 1038.18 1068.56 1037.96C1066.82 1036.61 1065.75 1034.43 1065.4 1031.5C1064.28 1022.3 1070.15 1007.97 1080.36 995C1091.5 980.85 1105.32 971.64 1114.15 971.64C1116.25 971.64 1118.08 972.16 1119.51 973.28C1120.43 974.01 1121.17 974.96 1121.7 976.13C1121.4 973.92 1120.97 971.71 1120.41 969.55C1110.71 964.13 1092.35 973.92 1077.52 992.75C1066.74 1006.45 1060.58 1021.82 1061.81 1031.94H1061.8Z" fill="url(#paint17_linear_66_444)"/>
<path d="M1037.68 1027.11C1037.83 1028.31 1038.05 1029.45 1038.35 1030.51C1039.28 1033.79 1040.95 1036.38 1043.34 1038.22C1045.92 1040.23 1049.12 1041.18 1052.77 1041.18C1056.32 1041.18 1060.3 1040.27 1064.51 1038.55C1061.47 1038.41 1058.42 1038.02 1055.41 1037.36C1051.45 1037.92 1048.06 1037.3 1045.56 1035.36C1044.83 1034.8 1044.2 1034.14 1043.65 1033.37C1042.4 1031.64 1041.61 1029.4 1041.28 1026.67C1039.82 1014.65 1047.44 996.009 1060.7 979.159C1067.95 969.959 1076.07 962.37 1083.83 957.09C1091.59 951.81 1098.99 948.82 1104.79 948.82C1107.28 948.82 1109.48 949.38 1111.27 950.53C1111.51 950.69 1111.74 950.85 1111.95 951.02C1113.96 952.58 1115.3 954.929 1115.95 957.999C1117.49 960.959 1118.77 964.059 1119.73 967.239C1120.09 964.379 1120.14 961.7 1119.84 959.26C1119.24 954.34 1117.33 950.59 1114.18 948.15C1112.1 946.54 1109.61 945.589 1106.82 945.299C1093.84 943.889 1074.17 956.12 1057.83 976.89C1044 994.46 1036.08 1014.16 1037.66 1027.09L1037.68 1027.11Z" fill="url(#paint18_linear_66_444)"/>
<path d="M1017.88 1009.61C1017.88 1010.83 1017.95 1012 1018.08 1013.12C1018.16 1013.74 1018.25 1014.36 1018.38 1014.95C1019.21 1019.13 1021.07 1022.38 1023.92 1024.59C1026.58 1026.66 1029.89 1027.63 1033.65 1027.63C1033.82 1027.63 1033.99 1027.63 1034.17 1027.62L1031.4 1025.39L1028.32 1022.93C1027.55 1022.6 1026.84 1022.18 1026.19 1021.67C1025.45 1021.1 1024.8 1020.43 1024.25 1019.66C1022.93 1017.87 1022.1 1015.53 1021.75 1012.66C1020.24 1000.25 1028.12 980.971 1041.82 963.551C1049.3 954.061 1057.71 946.221 1065.73 940.761C1073.76 935.301 1081.41 932.221 1087.41 932.221C1088.59 932.221 1089.7 932.331 1090.75 932.581C1092.28 932.941 1093.66 933.571 1094.84 934.491C1095.82 935.251 1096.65 936.201 1097.32 937.331L1098.12 937.901L1098.95 938.501C1100.26 939.421 1101.51 940.391 1102.7 941.411C1101.89 937.131 1100.01 933.821 1097.12 931.571C1093.97 929.131 1089.92 928.201 1085.29 928.621C1072.07 929.811 1054.13 941.981 1038.94 961.271C1025.86 977.881 1017.9 996.361 1017.9 1009.6L1017.88 1009.61Z" fill="url(#paint19_linear_66_444)"/>
</g>
<path d="M532.6 969.039C532.6 969.039 533.91 973.929 536.43 973.999C538.95 974.079 539.23 966.289 539.23 966.289L534.17 966.499L532.6 969.049V969.039Z" fill="url(#paint20_linear_66_444)"/>
<path d="M510.098 847.138C510.098 847.138 509.068 842.198 511.358 841.298C513.638 840.388 517.468 847.468 517.468 847.468L512.718 848.958L510.108 847.138H510.098Z" fill="url(#paint21_linear_66_444)"/>
<path d="M423.879 911.338C420.659 876.378 447.089 847.078 482.919 845.908L516.049 844.508C516.049 844.508 527.659 863.848 533.219 905.708C538.789 947.568 538.419 968.488 538.419 968.488L494.579 972.508C458.749 973.688 427.089 946.298 423.869 911.338H423.879Z" fill="url(#paint22_radial_66_444)"/>
<path d="M544.479 972.948C540.969 975.478 536.429 973.998 536.429 973.998C539.819 974.038 537.019 946.998 531.549 905.858C525.809 862.768 515.889 840.628 511.549 841.288C511.549 841.288 515.179 838.258 519.119 840.018C523.059 841.778 534.179 860.488 540.189 905.708C546.199 950.918 547.869 970.498 544.479 972.938V972.948Z" fill="url(#paint23_linear_66_444)"/>
<path d="M472.848 911.048C468.868 883.598 455.918 862.598 442.798 861.668C440.938 863.378 439.188 865.218 437.568 867.158C438.808 866.378 440.128 865.928 441.498 865.808C443.618 865.648 445.798 866.298 447.948 867.628C456.968 873.208 465.618 890.788 468.598 911.408C471.328 930.308 468.818 947.778 462.208 955.898C460.108 958.488 457.718 959.908 455.148 960.108C454.728 960.138 454.308 960.148 453.888 960.098C455.648 961.298 457.468 962.408 459.328 963.438C461.638 962.528 463.738 960.928 465.618 958.608C472.888 949.678 475.718 931.028 472.838 911.068L472.848 911.048Z" fill="url(#paint24_linear_66_444)"/>
<path d="M502.35 908.268C497.98 877.998 485.15 853.828 471.05 846.978C468.02 845.498 464.92 844.828 461.84 845.058C457.18 845.408 453 847.808 449.47 852.138C447.72 854.298 446.17 856.898 444.85 859.868C447.72 857.428 450.87 855.258 454.2 853.388C456.69 850.848 459.45 849.438 462.43 849.208C462.75 849.178 463.08 849.168 463.42 849.168C465.94 849.188 468.52 850.048 471.06 851.618C476.99 855.288 482.78 862.838 487.57 872.808C492.37 882.788 496.16 895.198 498.11 908.608C501.66 933.158 498.38 955.868 489.75 966.478C487.79 968.888 485.65 970.538 483.35 971.408C482.33 971.808 481.29 972.038 480.22 972.108C476.51 972.388 472.69 970.838 468.97 967.798C465.5 966.528 462.16 964.988 458.97 963.188C462.25 967.508 465.77 970.888 469.4 973.138C473.12 975.438 476.96 976.548 480.79 976.248C484.32 975.988 487.56 974.558 490.46 971.998C491.39 971.168 492.3 970.228 493.16 969.168C502.45 957.758 506.06 933.848 502.36 908.248L502.35 908.268Z" fill="url(#paint25_linear_66_444)"/>
<path d="M530.979 905.228C526.919 877.108 515.809 854.098 503.009 844.588C498.519 841.258 493.829 839.588 489.169 839.938C484.889 840.268 480.999 842.248 477.629 845.848C479.459 845.618 481.309 845.488 483.189 845.428L484.389 845.378L485.539 845.338C486.889 844.678 488.309 844.288 489.759 844.178C491.509 844.038 493.289 844.308 495.069 844.928C496.289 845.348 497.489 845.948 498.699 846.688C504.829 850.478 510.819 858.268 515.779 868.588C520.729 878.898 524.659 891.728 526.669 905.578C530.319 930.958 526.929 954.438 518.019 965.388C515.959 967.908 513.719 969.628 511.309 970.518C510.279 970.908 509.219 971.138 508.129 971.218C507.149 971.288 506.179 971.248 505.199 971.078L500.589 971.498L496.439 971.878C496.619 972.008 496.789 972.108 496.969 972.218C500.809 974.598 504.779 975.758 508.719 975.448C512.949 975.128 516.779 973.188 520.109 969.698C520.589 969.208 521.049 968.678 521.499 968.128C522.309 967.138 523.069 966.058 523.789 964.888C531.649 952.178 534.489 929.418 530.989 905.198L530.979 905.228Z" fill="url(#paint26_linear_66_444)"/>
<path d="M429.33 937.13C382.24 937.13 346.54 924.4 320.51 898.42C295.41 873.37 283.86 841.01 272.7 809.71L271.93 807.57L317.13 791.43L317.9 793.59C327.71 821.08 336.98 847.05 354.42 864.46C373.43 883.43 401.6 891.14 443.07 888.73C443.07 888.73 450.13 890.06 451.29 912.07C452.45 934.08 445.86 936.65 445.86 936.65C440.2 936.98 434.69 937.15 429.33 937.15V937.13Z" fill="url(#paint27_linear_66_444)"/>
<g id="star-eye-left" filter="url(#filter0_d_66_444)">
<path d="M758.99 731.92L739.01 730.18C735.96 729.92 733.32 727.99 732.12 725.18L724.29 706.71C720.22 697.11 706.62 697.11 702.55 706.71L694.72 725.18C693.53 727.99 690.88 729.92 687.83 730.18L667.85 731.92C657.46 732.82 653.26 745.76 661.13 752.6L676.27 765.75C678.58 767.75 679.59 770.87 678.9 773.85L674.38 793.39C672.03 803.55 683.04 811.55 691.97 806.17L709.16 795.83C711.78 794.25 715.05 794.25 717.67 795.83L734.86 806.17C743.79 811.55 754.8 803.55 752.45 793.39L747.93 773.85C747.24 770.87 748.25 767.76 750.56 765.75L765.7 752.6C773.57 745.76 769.37 732.82 758.98 731.92H758.99Z" fill="#FAF9FF"/>
</g>
<g id="star-eye-right" filter="url(#filter1_d_66_444)">
<path d="M929.949 731.92L909.969 730.18C906.919 729.92 904.279 727.99 903.079 725.18L895.249 706.71C891.179 697.11 877.579 697.11 873.509 706.71L865.679 725.18C864.489 727.99 861.839 729.92 858.789 730.18L838.809 731.92C828.419 732.82 824.219 745.76 832.089 752.6L847.229 765.75C849.539 767.75 850.549 770.87 849.859 773.85L845.339 793.39C842.989 803.55 853.999 811.55 862.929 806.17L880.119 795.83C882.739 794.25 886.009 794.25 888.629 795.83L905.819 806.17C914.749 811.55 925.759 803.55 923.409 793.39L918.889 773.85C918.199 770.87 919.209 767.76 921.519 765.75L936.659 752.6C944.529 745.76 940.329 732.82 929.939 731.92H929.949Z" fill="#FAF9FF"/>
</g>
<g id="mouth">
<path d="M771.91 847.939L770.85 888.779C756.14 879.799 750.59 864.449 757.88 850.569C760.93 844.749 765.58 845.309 771.91 847.939Z" fill="#FAF9FF"/>
<path d="M792.139 856.62L791.119 895.78C785.699 894.98 780.789 893.58 776.459 891.68L777.529 850.5C781.809 852.52 786.669 854.86 792.139 856.62Z" fill="#FAF9FF"/>
<path d="M814.829 895.299C810.549 896.089 806.059 896.499 801.429 896.499C799.849 896.499 798.309 896.449 796.799 896.339L797.789 858.139C799.879 858.599 802.049 858.959 804.289 859.149C807.279 859.409 810.199 859.439 813.019 859.279L814.829 895.299Z" fill="#FAF9FF"/>
<path d="M836.129 887.72C831.549 890.33 826.259 892.51 820.469 894.04H820.459L818.689 858.78C823.709 858.14 828.349 857.05 832.449 855.99L836.129 887.73V887.72Z" fill="#FAF9FF"/>
<path d="M841.499 884.23L838.049 854.48C844.159 852.83 848.439 851.85 850.079 853.79C858.159 863.38 853.399 875.38 841.499 884.23Z" fill="#FAF9FF"/>
</g>
<g id="left-arm">
<path d="M262.61 585.119L222.43 700.949L269.26 690.289L262.61 585.119Z" fill="url(#paint28_linear_66_444)"/>
<path d="M262.61 585.119C359.34 594.529 418.95 689.159 397.36 753.209C374.6 820.729 270 857.649 203.41 813.269C140.44 771.299 107.18 703.599 225.6 598.329L269.26 690.299L262.61 585.129V585.119Z" fill="#F34A42"/>
<path d="M319.054 799.906C343.541 792.973 357.687 767.209 350.652 742.361C343.616 717.513 318.062 702.99 293.575 709.924C269.089 716.858 254.942 742.622 261.978 767.47C269.014 792.318 294.568 806.84 319.054 799.906Z" fill="#B1B1B1"/>
<path d="M320.812 805.977C345.299 799.043 359.445 773.279 352.409 748.431C345.373 723.583 319.819 709.061 295.333 715.994C270.846 722.928 256.7 748.692 263.736 773.54C270.772 798.388 296.326 812.91 320.812 805.977Z" fill="#FAF9FF"/>
<path d="M338.17 753.62C340.86 763.01 339.01 772.62 333.89 780.01C330.03 785.66 324.27 790.01 317.25 792.02C300.96 796.69 283.9 787.07 279.16 770.54C275.97 759.41 279.16 747.98 286.58 740.28C290.16 736.52 294.76 733.66 300.08 732.13C316.37 727.46 333.43 737.08 338.17 753.61V753.62Z" fill="#B1B1B1"/>
<path d="M338.17 753.62C340.86 763.01 339.01 772.62 333.89 780.01C330.31 783.77 325.71 786.63 320.39 788.16C304.1 792.83 287.05 783.23 282.3 766.68C279.61 757.29 281.46 747.68 286.58 740.29C290.16 736.53 294.76 733.67 300.08 732.14C316.37 727.47 333.43 737.09 338.17 753.62Z" fill="url(#paint29_linear_66_444)"/>
<path d="M282.12 663.9L267.86 668.22L259.92 670.62L254.29 658.75L225.6 598.33C212.03 610.38 200.46 621.94 190.7 633.04L188.39 631.23C187.27 634.04 187.01 637.29 185.14 639.53C184.24 640.61 183.85 641.11 183.2 641.89C179.58 646.34 176.25 650.72 173.22 655.01C169.45 638.04 161.04 618.65 141.62 601.09C101.11 564.51 111.92 500.65 115.24 485.31C115.68 483.27 117.3 481.68 119.35 481.22L217.69 459.93C221.6 459.09 225.03 462.66 224.02 466.53C217.05 493.18 209.55 525.04 237.72 563.53C247.54 576.95 256.21 587.71 263.4 597.48C278.13 617.49 286.6 633.27 285.93 658.94C285.87 661.23 284.31 663.24 282.13 663.9H282.12Z" fill="#1F7F46"/>
<path d="M268.83 654.34L267.02 654.89L254.29 658.75L225.6 598.33C212.03 610.38 200.46 621.94 190.7 633.04C190.7 633.04 183.37 642.41 183.2 641.89C178.06 625.59 168.47 607.83 150.33 591.45C120.27 564.3 123.16 517.81 126.41 496.53C126.75 494.33 128.41 492.56 130.58 492.09L200.41 476.97C204.14 476.17 207.51 479.41 206.83 483.15C202.35 507.67 202.6 537.56 227.22 571.21C232.76 578.77 237.99 585.58 242.61 591.59C252.4 604.33 259.94 614.14 265.05 623.85C269.19 631.7 271.74 639.46 272.61 648.67C272.86 651.23 271.27 653.6 268.82 654.34H268.83Z" fill="#4FAA76"/>
<path d="M216.09 586.741C206 601.291 184.37 607.701 167.78 601.061C151.19 594.421 145.91 577.241 156 562.691C166.09 548.141 187.72 541.731 204.31 548.371C220.9 555.011 226.18 572.191 216.09 586.741Z" fill="#1F7F46"/>
<path d="M296.3 693.759L266.43 672.449L266.55 657.629L266.99 605.839C262.97 606.979 259.06 608.129 255.26 609.319C247.12 611.849 239.49 614.489 232.35 617.229C245.46 604.469 260.17 584.999 262.57 554.069C266.5 503.259 319.88 474.819 333.1 468.529C334.86 467.689 336.96 467.969 338.47 469.229L410.31 529.769C413.16 532.179 412.47 536.739 409.04 538.199C385.35 548.249 357.53 560.879 345.16 603.659C332 649.139 330.94 672.669 302.14 693.719C300.41 694.989 298.04 694.979 296.3 693.739V693.759Z" fill="#1F7F46"/>
<path d="M295.79 678.488L266.55 657.638L266.99 605.848C262.97 606.988 259.06 608.138 255.26 609.328C264.75 596.068 272.85 578.498 274.67 555.018C277.59 517.318 313.6 492.938 331.19 483.198C333.02 482.188 335.26 482.408 336.84 483.748L387.85 526.738C390.57 529.038 390.1 533.368 386.94 535.008C366.26 545.678 344.31 562.908 333.49 600.308C331.06 608.708 329.01 616.468 327.2 623.318C320.28 649.528 316.23 664.858 302.12 678.058C300.37 679.698 297.72 679.878 295.77 678.488H295.79Z" fill="#3FBA77"/>
<path d="M315.67 600.948C299.16 601.788 282.08 589.458 277.53 573.408C272.98 557.358 282.66 543.658 299.17 542.808C315.68 541.968 332.76 554.298 337.31 570.348C341.86 586.398 332.18 600.098 315.67 600.948Z" fill="#1F7F46"/>
<path d="M294.94 669.35L256.19 662.78L249.38 648.45L225.59 598.33C222.24 601.3 219.01 604.25 215.92 607.17C209.26 613.41 203.14 619.52 197.54 625.5C204.21 607.08 209.28 581.43 197.13 550.51C177.17 499.71 215.3 447.35 225.11 435.11C226.42 433.48 228.57 432.77 230.61 433.28L328.14 458.04C332.01 459.03 333.48 463.75 330.86 466.76C312.73 487.52 291.83 512.7 299.9 559.71C308.48 609.69 318.46 632.86 300.54 666.61C299.46 668.64 297.18 669.74 294.92 669.36L294.94 669.35Z" fill="#1F9B54"/>
<path d="M287.31 654.86L249.39 648.44L225.6 598.32C222.25 601.29 219.02 604.24 215.93 607.16C218.88 589.95 218.47 569.23 209.25 545.75C194.44 508.06 217.74 467.72 230.14 450.12C231.43 448.3 233.69 447.46 235.84 448.01L305.09 465.58C308.78 466.52 310.36 470.92 308.08 473.97C293.14 493.92 280.04 520.79 287.1 561.89C288.69 571.12 290.34 579.55 291.8 587C297.38 615.49 300.65 632.16 293.22 651.47C292.3 653.86 289.83 655.28 287.31 654.85V654.86Z" fill="#3FBA77"/>
<path d="M270.21 570.851C254.69 579.381 232.47 575.481 220.58 562.141C208.68 548.801 211.62 531.071 227.13 522.541C242.64 514.011 264.87 517.911 276.76 531.251C288.66 544.591 285.72 562.321 270.21 570.851Z" fill="#1F9B54"/>
<path d="M397.35 753.2C374.59 820.73 269.99 857.65 203.41 813.27C174.21 793.81 151.4 768.81 147.14 737.1C155.05 762.8 175.45 783.64 200.58 800.39C267.17 844.77 371.77 807.85 394.53 740.33C399.21 726.43 400.08 711.1 397.56 695.5C403.08 715.44 403.32 735.49 397.35 753.2Z" fill="url(#paint30_linear_66_444)" style="mix-blend-mode:luminosity"/>
</g>
<g id="money-signs" filter="url(#filter2_d_66_444)">
<path d="M477.06 483.859C472.73 483.859 467.91 480.369 467.63 475.179L467.34 469.889C456.08 467.889 446.38 462.939 439.84 455.809C438.12 453.959 437.3 451.599 437.48 449.009C437.72 445.659 440.4 443.309 441.54 442.459L441.62 442.399L449.06 437.599C450.3 436.629 452.01 436.079 454.14 435.969C454.32 435.969 454.49 435.959 454.67 435.959C457.19 435.959 459.39 436.929 461.23 438.859C462.17 439.799 463.81 440.779 465.82 441.639L464.05 408.909C444.78 402.669 434.6 391.879 433.78 376.819C432.9 360.539 443 346.199 460.27 338.939L459.89 331.829C459.59 326.209 464.24 322.179 468.78 321.929L478.71 321.389C478.91 321.379 479.1 321.369 479.29 321.369C484.37 321.369 488.11 325.039 488.39 330.279L488.69 335.869C502.36 337.619 513.35 345.139 521.39 358.259C522.45 360.129 523.07 362.959 522.15 365.179C521.53 367.739 519.73 369.799 517.51 370.499C511.296 373.879 507.523 375.606 506.19 375.679L505.76 375.699C505.6 375.699 505.45 375.709 505.3 375.709C502.66 375.709 500.19 374.499 497.76 372.009L496.97 371.199L496.93 370.429C494.94 367.449 492.8 365.379 490.2 363.989L491.43 386.739C502.52 389.669 510.47 393.369 516.33 398.329C524.01 404.829 528.04 413.399 528.64 424.549C529.73 444.739 516.92 461.599 495.82 468.089L496.12 473.639C496.26 476.159 495.48 478.519 493.94 480.279C492.35 482.089 490.05 483.169 487.44 483.309L477.52 483.849C477.37 483.849 477.21 483.859 477.06 483.859ZM494.28 439.449C499.19 436.299 501.36 431.949 501.04 426.029C500.86 422.629 500.63 418.509 492.98 415.389L494.28 439.439V439.449ZM462.02 371.239C461.54 372.319 461.3 373.499 461.37 374.869C461.42 375.839 461.63 376.849 462.38 377.909L462.02 371.239Z" fill="#F3FFF8"/>
<path d="M479.279 324.359C482.799 324.359 485.189 326.819 485.379 330.439L485.819 338.599C499.809 339.609 510.809 346.759 518.819 359.829C519.549 361.119 519.879 363.089 519.279 364.229C518.929 366.019 517.679 367.409 516.369 367.699C510.349 370.973 506.899 372.633 506.019 372.679L505.579 372.699C505.479 372.699 505.379 372.699 505.289 372.699C503.209 372.699 501.469 371.509 499.899 369.899L499.879 369.459C496.489 364.109 492.569 361.009 486.959 359.539L488.549 389.099C509.179 394.179 524.469 402.869 525.639 424.699C526.759 445.429 512.749 460.569 492.689 465.849L493.119 473.789C493.309 477.319 491.029 480.099 487.279 480.299L477.349 480.839C477.249 480.839 477.149 480.839 477.049 480.839C474.039 480.839 470.799 478.419 470.619 474.999L470.199 467.279C458.609 465.689 448.619 460.919 442.039 453.759C440.869 452.499 440.339 450.979 440.469 449.199C440.599 447.419 442.059 445.799 443.329 444.839L450.809 440.009C451.659 439.299 452.969 439.009 454.289 438.939C454.409 438.939 454.529 438.939 454.649 438.939C456.269 438.939 457.729 439.539 459.039 440.909C461.139 443.009 464.999 444.789 469.039 445.899L466.919 406.639C451.179 401.959 437.669 393.399 436.769 376.629C435.849 359.649 447.549 346.849 463.379 340.909L462.879 331.649C462.679 327.899 465.839 325.069 468.929 324.909L478.859 324.369C478.999 324.369 479.139 324.359 479.279 324.359ZM465.719 384.139L464.609 363.629C461.649 366.219 458.069 369.509 458.369 375.029C458.579 378.999 460.939 381.749 465.719 384.149M491.529 444.249C499.969 440.699 504.519 434.919 504.029 425.879C503.739 420.589 502.539 414.679 489.739 411.169L491.529 444.249ZM479.279 318.359C479.039 318.359 478.789 318.359 478.539 318.379L468.609 318.919C461.889 319.279 456.529 325.259 456.889 331.979L457.159 337.019C439.869 345.019 429.859 359.999 430.779 376.969C431.639 392.879 441.849 404.339 461.159 411.099L462.499 435.929C460.269 433.979 457.579 432.959 454.659 432.959C454.429 432.959 454.199 432.959 453.969 432.979C451.279 433.129 449.039 433.859 447.319 435.149L440.069 439.829L439.899 439.939L439.729 440.059C438.259 441.159 434.799 444.219 434.479 448.799C434.239 452.239 435.329 455.379 437.639 457.869C444.149 464.959 453.549 470.019 464.459 472.389L464.619 475.349C464.959 481.699 470.539 486.869 477.049 486.869C477.259 486.869 477.459 486.869 477.669 486.849L487.589 486.309C491.009 486.129 494.059 484.689 496.179 482.259C498.239 479.899 499.279 476.789 499.099 473.479L498.919 470.229C520.049 462.839 532.749 445.289 531.619 424.389C530.239 398.799 511.759 389.329 494.289 384.419L493.559 370.909C493.689 371.089 493.829 371.269 493.959 371.449L494.019 372.499L495.589 374.109C498.619 377.209 501.779 378.719 505.279 378.719C505.479 378.719 505.689 378.719 505.889 378.699L506.349 378.669C508.969 378.529 509.199 378.429 518.709 373.249C521.699 372.169 524.109 369.449 524.989 366.099C526.169 362.969 525.409 359.299 524.019 356.859L523.969 356.779L523.919 356.699C515.869 343.559 504.989 335.699 491.529 333.279L491.359 330.119C490.989 323.309 485.899 318.369 479.259 318.369L479.279 318.359ZM496.909 432.519L496.279 420.909C497.839 422.569 497.939 424.359 498.039 426.199C498.149 428.249 498.009 430.429 496.909 432.519Z" fill="#1F7F46"/>
<path d="M568.15 478.939C563.82 478.939 559 475.449 558.72 470.259L558.43 464.969C547.17 462.969 537.47 458.019 530.93 450.889C529.21 449.039 528.39 446.679 528.57 444.089C528.81 440.739 531.49 438.389 532.63 437.539L532.71 437.479L540.15 432.679C541.4 431.709 543.1 431.159 545.23 431.049C545.41 431.049 545.58 431.039 545.76 431.039C548.27 431.039 550.48 432.009 552.31 433.929C553.25 434.869 554.89 435.849 556.91 436.709L555.14 403.979C535.87 397.749 525.69 386.959 524.87 371.889C523.99 355.609 534.09 341.269 551.36 334.009L550.98 326.899C550.68 321.279 555.33 317.249 559.87 316.999L569.8 316.459C570 316.449 570.19 316.439 570.38 316.439C575.45 316.439 579.2 320.109 579.48 325.349L579.78 330.939C593.45 332.689 604.44 340.209 612.48 353.329C613.54 355.199 614.16 358.029 613.24 360.249C612.62 362.809 610.82 364.859 608.6 365.569C602.386 368.949 598.613 370.676 597.28 370.749L596.83 370.769C596.68 370.769 596.53 370.779 596.38 370.779C593.74 370.779 591.27 369.569 588.84 367.069L588.05 366.259L588.01 365.489C586.02 362.509 583.88 360.439 581.28 359.049L582.51 381.799C593.6 384.729 601.55 388.439 607.41 393.389C615.09 399.889 619.12 408.459 619.72 419.609C620.81 439.799 608 456.659 586.9 463.149L587.2 468.699C587.49 474.009 583.84 478.079 578.52 478.369L568.59 478.909C568.44 478.909 568.28 478.919 568.13 478.919L568.15 478.939ZM585.37 434.539C590.28 431.389 592.45 427.039 592.13 421.119C591.95 417.719 591.72 413.599 584.07 410.479L585.37 434.539ZM553.11 366.319C552.63 367.399 552.38 368.579 552.46 369.949C552.51 370.919 552.72 371.929 553.47 372.989L553.11 366.319Z" fill="#F3FFF8"/>
<path d="M570.379 319.449C573.899 319.449 576.289 321.919 576.479 325.519L576.919 333.679C590.909 334.699 601.909 341.839 609.919 354.909C610.649 356.199 610.979 358.169 610.379 359.309C610.029 361.099 608.779 362.489 607.469 362.779C601.449 366.053 597.999 367.713 597.119 367.759L596.679 367.779C596.579 367.779 596.479 367.779 596.379 367.779C594.309 367.779 592.559 366.589 590.989 364.979L590.969 364.539C587.579 359.189 583.659 356.089 578.049 354.619L579.639 384.179C600.269 389.259 615.559 397.949 616.729 419.779C617.849 440.509 603.839 455.649 583.779 460.929L584.209 468.869C584.399 472.399 582.119 475.179 578.369 475.379L568.439 475.919C568.339 475.919 568.239 475.919 568.139 475.919C565.129 475.919 561.889 473.499 561.709 470.079L561.289 462.359C549.699 460.769 539.709 455.999 533.129 448.839C531.959 447.579 531.429 446.059 531.559 444.279C531.689 442.499 533.149 440.879 534.419 439.919L541.899 435.089C542.749 434.379 544.059 434.089 545.379 434.019C545.499 434.019 545.629 434.009 545.749 434.009C547.369 434.009 548.829 434.609 550.129 435.979C552.229 438.079 556.089 439.859 560.129 440.969L558.009 401.709C542.269 397.029 528.759 388.469 527.859 371.699C526.939 354.719 538.639 341.919 554.469 335.979L553.969 326.719C553.769 322.969 556.929 320.149 560.019 319.979L569.949 319.439C570.089 319.439 570.229 319.429 570.369 319.429M556.819 379.229L555.709 358.719C552.749 361.309 549.169 364.599 549.469 370.119C549.679 374.089 552.049 376.839 556.819 379.239M582.619 439.329C591.059 435.779 595.609 429.999 595.119 420.959C594.829 415.669 593.629 409.759 580.829 406.249L582.619 439.339M570.379 313.439C570.139 313.439 569.889 313.439 569.639 313.459L559.709 313.999C552.989 314.359 547.629 320.339 547.989 327.059L548.259 332.099C530.969 340.099 520.959 355.079 521.879 372.049C522.739 387.959 532.949 399.419 552.259 406.179L553.599 431.009C551.369 429.059 548.679 428.039 545.759 428.039C545.529 428.039 545.299 428.039 545.069 428.059C542.379 428.199 540.149 428.929 538.429 430.229L531.179 434.909L530.999 435.019L530.829 435.139C529.359 436.239 525.899 439.299 525.579 443.879C525.339 447.329 526.429 450.459 528.749 452.949C535.249 460.029 544.659 465.099 555.569 467.459L555.729 470.419C556.069 476.769 561.649 481.939 568.159 481.939C568.369 481.939 568.569 481.939 568.779 481.919L578.709 481.379C585.649 481.009 590.599 475.489 590.219 468.549L590.039 465.299C611.169 457.909 623.869 440.359 622.739 419.459C621.359 393.879 602.879 384.399 585.409 379.489L584.679 365.979C584.809 366.159 584.949 366.339 585.079 366.519L585.139 367.569L586.709 369.179C589.729 372.279 592.899 373.789 596.389 373.789C596.589 373.789 596.799 373.789 597.009 373.769L597.449 373.749C600.089 373.609 600.319 373.499 609.829 368.329C612.819 367.249 615.229 364.529 616.109 361.179C617.289 358.059 616.529 354.379 615.149 351.939L615.099 351.849L615.049 351.769C606.999 338.629 596.119 330.769 582.659 328.349L582.489 325.189C582.119 318.379 577.039 313.439 570.389 313.439H570.379ZM587.999 427.609L587.369 415.999C588.929 417.659 589.029 419.449 589.129 421.289C589.239 423.339 589.099 425.519 587.999 427.609Z" fill="#1F7F46"/>
<path d="M659.239 474.029C654.909 474.029 650.089 470.539 649.809 465.349L649.519 460.059C638.259 458.059 628.559 453.109 622.019 445.979C620.299 444.129 619.479 441.769 619.659 439.179C619.899 435.829 622.579 433.479 623.719 432.629L623.799 432.569L631.239 427.769C632.479 426.799 634.189 426.249 636.319 426.139C636.499 426.139 636.669 426.129 636.849 426.129C639.369 426.129 641.569 427.099 643.409 429.029C644.349 429.969 645.989 430.949 648.009 431.809L646.239 399.079C626.969 392.839 616.789 382.049 615.969 366.989C615.089 350.709 625.189 336.369 642.459 329.109L642.079 321.999C641.779 316.379 646.429 312.339 650.969 312.099L660.899 311.559C661.099 311.549 661.289 311.539 661.479 311.539C666.549 311.539 670.299 315.209 670.579 320.449L670.879 326.039C684.549 327.789 695.539 335.309 703.579 348.429C704.639 350.299 705.259 353.129 704.339 355.349C703.719 357.909 701.919 359.959 699.699 360.669C690.379 365.739 690.359 365.739 688.379 365.849L687.939 365.869C687.789 365.869 687.639 365.879 687.479 365.879C684.839 365.879 682.379 364.669 679.949 362.179L679.159 361.369L679.119 360.599C677.129 357.619 674.989 355.549 672.389 354.159L673.619 376.909C684.709 379.839 692.659 383.539 698.519 388.499C706.199 394.999 710.229 403.569 710.829 414.719C711.919 434.909 699.109 451.769 678.009 458.259L678.309 463.809C678.449 466.329 677.669 468.689 676.129 470.449C674.539 472.259 672.239 473.339 669.629 473.479L659.709 474.019C659.559 474.019 659.399 474.029 659.249 474.029H659.239ZM676.459 429.629C681.369 426.479 683.539 422.129 683.219 416.209C683.039 412.809 682.809 408.689 675.159 405.569L676.459 429.619V429.629ZM644.199 361.409C643.719 362.489 643.479 363.669 643.549 365.039C643.599 366.009 643.809 367.019 644.559 368.079L644.199 361.409Z" fill="#F3FFF8"/>
<path d="M661.469 314.529C664.989 314.529 667.379 316.989 667.569 320.609L668.009 328.769C681.999 329.779 692.999 336.929 701.009 349.999C701.739 351.289 702.069 353.259 701.469 354.399C701.119 356.189 699.869 357.579 698.559 357.869C692.539 361.143 689.089 362.803 688.209 362.849L687.769 362.869C687.669 362.869 687.569 362.869 687.469 362.869C685.389 362.869 683.649 361.679 682.079 360.069L682.059 359.629C678.679 354.279 674.749 351.179 669.139 349.709L670.729 379.269C691.359 384.349 706.649 393.039 707.819 414.869C708.939 435.599 694.929 450.739 674.869 456.019L675.299 463.959C675.489 467.489 673.209 470.269 669.459 470.469L659.529 471.009C659.429 471.009 659.329 471.009 659.229 471.009C656.219 471.009 652.979 468.589 652.799 465.169L652.379 457.449C640.789 455.859 630.799 451.089 624.219 443.929C623.049 442.669 622.519 441.149 622.649 439.369C622.769 437.589 624.239 435.969 625.509 435.009L632.989 430.179C633.839 429.469 635.149 429.179 636.469 429.109C636.589 429.109 636.709 429.109 636.839 429.109C638.459 429.109 639.919 429.709 641.229 431.079C643.329 433.179 647.189 434.959 651.229 436.069L649.109 396.809C633.369 392.129 619.859 383.569 618.949 366.799C618.029 349.819 629.729 337.019 645.559 331.079L645.059 321.819C644.859 318.069 648.019 315.239 651.109 315.079L661.039 314.539C661.179 314.539 661.319 314.529 661.459 314.529M647.909 374.309L646.799 353.799C643.839 356.389 640.259 359.679 640.559 365.199C640.769 369.169 643.129 371.919 647.909 374.319M673.709 434.419C682.149 430.869 686.699 425.089 686.209 416.049C685.919 410.759 684.719 404.849 671.919 401.339L673.699 434.419M661.469 308.529C661.229 308.529 660.979 308.529 660.729 308.549L650.799 309.089C644.079 309.449 638.719 315.429 639.079 322.149L639.349 327.189C622.059 335.189 612.049 350.169 612.969 367.139C613.829 383.049 624.039 394.509 643.349 401.269L644.689 426.099C642.459 424.149 639.769 423.129 636.849 423.129C636.619 423.129 636.389 423.129 636.159 423.149C633.469 423.299 631.229 424.029 629.509 425.319L622.259 429.999L622.089 430.109L621.919 430.229C620.449 431.329 616.989 434.389 616.659 438.979C616.419 442.419 617.509 445.559 619.819 448.049C626.329 455.139 635.729 460.199 646.639 462.569L646.799 465.529C647.139 471.879 652.719 477.049 659.229 477.049C659.439 477.049 659.639 477.049 659.849 477.029L669.779 476.489C673.199 476.309 676.249 474.869 678.369 472.439C680.429 470.079 681.469 466.969 681.289 463.659L681.109 460.409C702.239 453.019 714.939 435.469 713.809 414.569C712.429 388.979 693.949 379.509 676.479 374.599L675.749 361.089C675.879 361.269 676.009 361.449 676.149 361.629L676.209 362.679L677.779 364.289C680.799 367.389 683.969 368.899 687.459 368.899C687.659 368.899 687.869 368.899 688.079 368.879L688.519 368.859C691.149 368.719 691.379 368.619 700.899 363.439C703.889 362.359 706.289 359.639 707.179 356.289C708.359 353.159 707.599 349.479 706.209 347.039L706.159 346.959L706.109 346.879C698.059 333.739 687.179 325.879 673.719 323.459L673.549 320.299C673.179 313.489 668.099 308.549 661.449 308.549L661.469 308.529ZM679.089 422.689L678.459 411.079C680.019 412.739 680.119 414.529 680.219 416.369C680.329 418.419 680.189 420.599 679.089 422.689Z" fill="#1F7F46"/>
</g>
<defs>
<filter id="filter0_d_66_444" x="629.049" y="671.51" width="168.732" height="164.387" filterUnits="userSpaceOnUse" color-interpolation-filters="sRGB">
<feFlood flood-opacity="0" result="BackgroundImageFix"/>
<feColorMatrix in="SourceAlpha" type="matrix" values="0 0 0 0 0 0 0 0 0 0 0 0 0 0 0 0 0 0 127 0" result="hardAlpha"/>
<feOffset/>
<feGaussianBlur stdDeviation="14"/>
<feColorMatrix type="matrix" values="0 0 0 0 1 0 0 0 0 1 0 0 0 0 1 0 0 0 0.75 0"/>
<feBlend mode="normal" in2="BackgroundImageFix" result="effect1_dropShadow_66_444"/>
<feBlend mode="normal" in="SourceGraphic" in2="effect1_dropShadow_66_444" result="shape"/>
</filter>
<filter id="filter1_d_66_444" x="800.008" y="671.51" width="168.732" height="164.387" filterUnits="userSpaceOnUse" color-interpolation-filters="sRGB">
<feFlood flood-opacity="0" result="BackgroundImageFix"/>
<feColorMatrix in="SourceAlpha" type="matrix" values="0 0 0 0 0 0 0 0 0 0 0 0 0 0 0 0 0 0 127 0" result="hardAlpha"/>
<feOffset/>
<feGaussianBlur stdDeviation="14"/>
<feColorMatrix type="matrix" values="0 0 0 0 1 0 0 0 0 1 0 0 0 0 1 0 0 0 0.75 0"/>
<feBlend mode="normal" in2="BackgroundImageFix" result="effect1_dropShadow_66_444"/>
<feBlend mode="normal" in="SourceGraphic" in2="effect1_dropShadow_66_444" result="shape"/>
</filter>
<filter id="filter2_d_66_444" x="408.721" y="286.529" width="327.158" height="222.34" filterUnits="userSpaceOnUse" color-interpolation-filters="sRGB">
<feFlood flood-opacity="0" result="BackgroundImageFix"/>
<feColorMatrix in="SourceAlpha" type="matrix" values="0 0 0 0 0 0 0 0 0 0 0 0 0 0 0 0 0 0 127 0" result="hardAlpha"/>
<feOffset/>
<feGaussianBlur stdDeviation="11"/>
<feColorMatrix type="matrix" values="0 0 0 0 0 0 0 0 0 0.988235 0 0 0 0 0.423529 0 0 0 0.75 0"/>
<feBlend mode="normal" in2="BackgroundImageFix" result="effect1_dropShadow_66_444"/>
<feBlend mode="normal" in="SourceGraphic" in2="effect1_dropShadow_66_444" result="shape"/>
</filter>
<radialGradient id="paint0_radial_66_444" cx="0" cy="0" r="1" gradientUnits="userSpaceOnUse" gradientTransform="translate(1006.65 428.23) scale(168.61 168.61)">
<stop stop-color="#F34A42"/>
<stop offset="1" stop-color="#8B2838"/>
</radialGradient>
<linearGradient id="paint1_linear_66_444" x1="1104.49" y1="691.55" x2="1102.34" y2="855.15" gradientUnits="userSpaceOnUse">
<stop stop-color="#D0D2D3"/>
<stop offset="1" stop-color="#808184"/>
</linearGradient>
<linearGradient id="paint2_linear_66_444" x1="1108.49" y1="896.861" x2="1107.66" y2="701.421" gradientUnits="userSpaceOnUse">
<stop stop-color="#0009FF"/>
<stop offset="1" stop-color="#8B2838"/>
</linearGradient>
<linearGradient id="paint3_linear_66_444" x1="485.56" y1="678.76" x2="494.06" y2="920.87" gradientUnits="userSpaceOnUse">
<stop stop-color="#D0D2D3"/>
<stop offset="1" stop-color="#808184"/>
</linearGradient>
<linearGradient id="paint4_linear_66_444" x1="491.73" y1="909.081" x2="490.82" y2="693.261" gradientUnits="userSpaceOnUse">
<stop stop-color="#0009FF"/>
<stop offset="1" stop-color="#8B2838"/>
</linearGradient>
<linearGradient id="paint5_linear_66_444" x1="476.67" y1="670.219" x2="449.67" y2="989.569" gradientUnits="userSpaceOnUse">
<stop stop-color="white"/>
<stop offset="1" stop-color="#D0D2D3"/>
</linearGradient>
<linearGradient id="paint6_linear_66_444" x1="479.82" y1="620.28" x2="1073.74" y2="914.76" gradientUnits="userSpaceOnUse">
<stop stop-color="#F97F7D"/>
<stop offset="1" stop-color="#8B2838"/>
</linearGradient>
<linearGradient id="paint7_linear_66_444" x1="981.82" y1="630.58" x2="579.27" y2="947.85" gradientUnits="userSpaceOnUse">
<stop stop-color="#8B2838"/>
<stop offset="0.47" stop-color="#F97F7D" stop-opacity="0"/>
<stop offset="1" stop-color="#8B2838"/>
</linearGradient>
<linearGradient id="paint8_linear_66_444" x1="777.53" y1="346.95" x2="840.6" y2="1816.3" gradientUnits="userSpaceOnUse">
<stop stop-color="#F97F7D"/>
<stop offset="1" stop-color="white"/>
</linearGradient>
<linearGradient id="paint9_linear_66_444" x1="1009.83" y1="1007.11" x2="1004.39" y2="1007.11" gradientUnits="userSpaceOnUse">
<stop offset="0.31" stop-color="#3A284F"/>
<stop offset="1"/>
</linearGradient>
<linearGradient id="paint10_linear_66_444" x1="1077.48" y1="927.657" x2="1077.17" y2="922.226" gradientUnits="userSpaceOnUse">
<stop offset="0.31" stop-color="#3A284F"/>
<stop offset="1"/>
</linearGradient>
<radialGradient id="paint11_radial_66_444" cx="0" cy="0" r="1" gradientUnits="userSpaceOnUse" gradientTransform="translate(1081.86 948.429) rotate(180) scale(115.01 115.01)">
<stop stop-color="#F34A42"/>
<stop offset="1" stop-color="#8B2838"/>
</radialGradient>
<linearGradient id="paint12_linear_66_444" x1="1080.67" y1="964.099" x2="999.589" y2="964.099" gradientUnits="userSpaceOnUse">
<stop stop-color="#A6A8AB"/>
<stop offset="1" stop-color="#F0F1F1"/>
</linearGradient>
<linearGradient id="paint13_linear_66_444" x1="1149.77" y1="697.48" x2="1156.24" y2="881.83" gradientUnits="userSpaceOnUse">
<stop stop-color="white"/>
<stop offset="1" stop-color="#D0D2D3"/>
</linearGradient>
<linearGradient id="paint14_linear_66_444" x1="1303.24" y1="1156.15" x2="1208.71" y2="998.221" gradientUnits="userSpaceOnUse">
<stop offset="0.31" stop-color="#3A284F"/>
<stop offset="1"/>
</linearGradient>
<linearGradient id="paint15_linear_66_444" x1="1114.12" y1="1387.29" x2="1200.44" y2="1668.95" gradientUnits="userSpaceOnUse">
<stop stop-color="#F97F7D"/>
<stop offset="1" stop-color="#241D2F"/>
</linearGradient>
<linearGradient id="paint16_linear_66_444" x1="1151.23" y1="1474.85" x2="1157.23" y2="1424.51" gradientUnits="userSpaceOnUse">
<stop offset="0.31" stop-color="#3A284F"/>
<stop offset="1"/>
</linearGradient>
<linearGradient id="paint17_linear_66_444" x1="1152.69" y1="1007.23" x2="1133.93" y2="992.085" gradientUnits="userSpaceOnUse">
<stop offset="0.31" stop-color="#3A284F"/>
<stop offset="1"/>
</linearGradient>
<linearGradient id="paint18_linear_66_444" x1="1147.96" y1="1003.14" x2="1114.71" y2="976.272" gradientUnits="userSpaceOnUse">
<stop offset="0.31" stop-color="#3A284F"/>
<stop offset="1"/>
</linearGradient>
<linearGradient id="paint19_linear_66_444" x1="1125.15" y1="984.155" x2="1096.14" y2="960.724" gradientUnits="userSpaceOnUse">
<stop offset="0.31" stop-color="#3A284F"/>
<stop offset="1"/>
</linearGradient>
<linearGradient id="paint20_linear_66_444" x1="532.679" y1="968.546" x2="538.24" y2="971.988" gradientUnits="userSpaceOnUse">
<stop offset="0.31" stop-color="#3A284F"/>
<stop offset="1"/>
</linearGradient>
<linearGradient id="paint21_linear_66_444" x1="511.545" y1="847.539" x2="515.072" y2="842.513" gradientUnits="userSpaceOnUse">
<stop offset="0.31" stop-color="#3A284F"/>
<stop offset="1"/>
</linearGradient>
<radialGradient id="paint22_radial_66_444" cx="0" cy="0" r="1" gradientUnits="userSpaceOnUse" gradientTransform="translate(433.749 829.546) rotate(31.75) scale(137.588 129.8)">
<stop stop-color="#F34A42"/>
<stop offset="1" stop-color="#8B2838"/>
</radialGradient>
<linearGradient id="paint23_linear_66_444" x1="485.844" y1="882.469" x2="568.685" y2="933.733" gradientUnits="userSpaceOnUse">
<stop stop-color="#A6A8AB"/>
<stop offset="1" stop-color="#F0F1F1"/>
</linearGradient>
<linearGradient id="paint24_linear_66_444" x1="473.25" y1="957.751" x2="438.022" y2="862.934" gradientUnits="userSpaceOnUse">
<stop offset="0.31" stop-color="#3A284F"/>
<stop offset="1"/>
</linearGradient>
<linearGradient id="paint25_linear_66_444" x1="495.73" y1="970.873" x2="450.169" y2="848.248" gradientUnits="userSpaceOnUse">
<stop offset="0.31" stop-color="#3A284F"/>
<stop offset="1"/>
</linearGradient>
<linearGradient id="paint26_linear_66_444" x1="527.033" y1="968.842" x2="479.982" y2="842.202" gradientUnits="userSpaceOnUse">
<stop offset="0.31" stop-color="#3A284F"/>
<stop offset="1"/>
</linearGradient>
<linearGradient id="paint27_linear_66_444" x1="271.92" y1="864.28" x2="712.5" y2="973" gradientUnits="userSpaceOnUse">
<stop stop-color="#47479A"/>
<stop offset="0.36" stop-color="#312143"/>
<stop offset="0.51" stop-color="#231830"/>
<stop offset="0.83" stop-color="#09060D"/>
<stop offset="1"/>
</linearGradient>
<linearGradient id="paint28_linear_66_444" x1="230.382" y1="635.264" x2="282.887" y2="668.946" gradientUnits="userSpaceOnUse">
<stop offset="0.31" stop-color="#3A284F"/>
<stop offset="1"/>
</linearGradient>
<linearGradient id="paint29_linear_66_444" x1="109.647" y1="813.354" x2="165.026" y2="798.939" gradientUnits="userSpaceOnUse">
<stop offset="0.31" stop-color="#3A284F"/>
<stop offset="1"/>
</linearGradient>
<linearGradient id="paint30_linear_66_444" x1="209.91" y1="588.75" x2="342.48" y2="868.96" gradientUnits="userSpaceOnUse">
<stop stop-color="#F97F7D"/>
<stop offset="1" stop-color="#241D2F"/>
</linearGradient>
</defs>
</svg>
