<svg width="1500" height="1500" viewBox="0 0 1500 1500" fill="none" xmlns="http://www.w3.org/2000/svg">
<style>
  /* Quest cards: slide up one by one */
  .quest-card {
    animation: cardSlideUp 4s ease-out infinite;
  }
  .quest-card:nth-child(1) { animation-delay: 0s; }
  .quest-card:nth-child(2) { animation-delay: 0.4s; }
  .quest-card:nth-child(3) { animation-delay: 0.8s; }
  .quest-card:nth-child(4) { animation-delay: 1.2s; }
  .quest-card:nth-child(5) { animation-delay: 1.6s; }
  .quest-card:nth-child(6) { animation-delay: 2.0s; }
  @keyframes cardSlideUp {
    0%   { transform: translateY(80px); opacity: 0; }
    15%  { transform: translateY(0); opacity: 1; }
    85%  { transform: translateY(0); opacity: 1; }
    100% { transform: translateY(80px); opacity: 0; }
  }

  /* Robot body: breathing */
  #robot-body {
    animation: robotBreathing 3s ease-in-out infinite;
    transform-origin: 1017px 750px;
  }
  @keyframes robotBreathing {
    0%   { transform: scale(1) translateY(0); }
    50%  { transform: scale(1.02) translateY(-8px); }
    100% { transform: scale(1) translateY(0); }
  }

  /* Robot eyes: look left-right */
  #robot-eyes {
    animation: eyeLook 3s ease-in-out infinite;
    transform-origin: 1017px 727px;
  }
  @keyframes eyeLook {
    0%   { transform: translateX(0); }
    25%  { transform: translateX(20px); }
    75%  { transform: translateX(-20px); }
    100% { transform: translateX(0); }
  }

  /* Laptop: tilt */
  #laptop {
    animation: laptopTilt 2.5s ease-in-out infinite;
    transform-origin: 415px 1090px;
  }
  @keyframes laptopTilt {
    0%   { transform: rotate(-3deg); }
    50%  { transform: rotate(3deg); }
    100% { transform: rotate(-3deg); }
  }
</style>
<g id="quest-cards" filter="url(#filter0_f_66_346)">
<g class="quest-card">
<rect x="100" y="156" width="490" height="269.953" stroke="#ECE9E9" stroke-opacity="0.27" stroke-width="2"/>
<rect x="133" y="192" width="346" height="28" fill="#3F3F3F"/>
<rect x="133" y="232" width="254" height="28" fill="#3F3F3F"/>
<rect x="133" y="272" width="302" height="28" fill="#3F3F3F"/>
<path d="M176.89 394.953V391.668L184.225 383.538C185.055 382.618 185.62 381.863 185.92 381.273C186.23 380.683 186.385 380.058 186.385 379.398V379.278C186.385 378.538 186.17 377.958 185.74 377.538C185.32 377.118 184.73 376.908 183.97 376.908C182.48 376.908 181.36 377.773 180.61 379.503L176.83 378.003C177.49 376.383 178.465 375.143 179.755 374.283C181.045 373.413 182.55 372.978 184.27 372.978C185.53 372.978 186.635 373.223 187.585 373.713C188.545 374.203 189.29 374.883 189.82 375.753C190.35 376.623 190.615 377.643 190.615 378.813V378.963C190.615 379.693 190.505 380.388 190.285 381.048C190.065 381.708 189.69 382.418 189.16 383.178C188.64 383.928 187.915 384.808 186.985 385.818L182.17 391.068V391.203H191.005V394.953H176.89ZM198.883 400.443L196.633 398.853L200.593 393.678L200.533 394.878C200.093 394.898 199.658 394.813 199.228 394.623C198.808 394.423 198.463 394.128 198.193 393.738C197.923 393.348 197.788 392.873 197.788 392.313C197.788 391.543 198.043 390.898 198.553 390.378C199.073 389.848 199.753 389.583 200.593 389.583C201.493 389.583 202.198 389.863 202.708 390.423C203.228 390.983 203.488 391.693 203.488 392.553C203.488 393.153 203.373 393.723 203.143 394.263C202.913 394.803 202.558 395.398 202.078 396.048L198.883 400.443ZM211.157 389.163L209.897 386.118L222.812 379.248L224.057 382.293L211.157 389.163ZM216.992 395.448C214.552 395.448 212.647 394.508 211.277 392.628C209.907 390.738 209.222 388.073 209.222 384.633V383.763C209.222 380.323 209.907 377.668 211.277 375.798C212.647 373.918 214.552 372.978 216.992 372.978C219.432 372.978 221.332 373.918 222.692 375.798C224.052 377.668 224.732 380.323 224.732 383.763V384.633C224.732 388.073 224.052 390.738 222.692 392.628C221.332 394.508 219.432 395.448 216.992 395.448ZM216.902 391.863C218.252 391.863 219.257 391.268 219.917 390.078C220.587 388.888 220.922 387.118 220.922 384.768V383.628C220.922 381.208 220.597 379.428 219.947 378.288C219.307 377.138 218.342 376.563 217.052 376.563C215.702 376.563 214.692 377.153 214.022 378.333C213.362 379.513 213.032 381.278 213.032 383.628V384.768C213.032 387.188 213.352 388.978 213.992 390.138C214.642 391.288 215.612 391.863 216.902 391.863ZM227.645 389.163L226.385 386.118L239.3 379.248L240.545 382.293L227.645 389.163ZM233.48 395.448C231.04 395.448 229.135 394.508 227.765 392.628C226.395 390.738 225.71 388.073 225.71 384.633V383.763C225.71 380.323 226.395 377.668 227.765 375.798C229.135 373.918 231.04 372.978 233.48 372.978C235.92 372.978 237.82 373.918 239.18 375.798C240.54 377.668 241.22 380.323 241.22 383.763V384.633C241.22 388.073 240.54 390.738 239.18 392.628C237.82 394.508 235.92 395.448 233.48 395.448ZM233.39 391.863C234.74 391.863 235.745 391.268 236.405 390.078C237.075 388.888 237.41 387.118 237.41 384.768V383.628C237.41 381.208 237.085 379.428 236.435 378.288C235.795 377.138 234.83 376.563 233.54 376.563C232.19 376.563 231.18 377.153 230.51 378.333C229.85 379.513 229.52 381.278 229.52 383.628V384.768C229.52 387.188 229.84 388.978 230.48 390.138C231.13 391.288 232.1 391.863 233.39 391.863ZM244.133 389.163L242.873 386.118L255.788 379.248L257.033 382.293L244.133 389.163ZM249.968 395.448C247.528 395.448 245.623 394.508 244.253 392.628C242.883 390.738 242.198 388.073 242.198 384.633V383.763C242.198 380.323 242.883 377.668 244.253 375.798C245.623 373.918 247.528 372.978 249.968 372.978C252.408 372.978 254.308 373.918 255.668 375.798C257.028 377.668 257.708 380.323 257.708 383.763V384.633C257.708 388.073 257.028 390.738 255.668 392.628C254.308 394.508 252.408 395.448 249.968 395.448ZM249.878 391.863C251.228 391.863 252.233 391.268 252.893 390.078C253.563 388.888 253.898 387.118 253.898 384.768V383.628C253.898 381.208 253.573 379.428 252.923 378.288C252.283 377.138 251.318 376.563 250.028 376.563C248.678 376.563 247.668 377.153 246.998 378.333C246.338 379.513 246.008 381.278 246.008 383.628V384.768C246.008 387.188 246.328 388.978 246.968 390.138C247.618 391.288 248.588 391.863 249.878 391.863ZM282.93 395.448C281.48 395.448 280.205 395.138 279.105 394.518C278.015 393.898 277.165 393.033 276.555 391.923C275.955 390.813 275.655 389.523 275.655 388.053V373.473H279.675V387.918C279.675 389.068 279.965 389.983 280.545 390.663C281.125 391.333 281.92 391.668 282.93 391.668C283.95 391.668 284.745 391.333 285.315 390.663C285.895 389.983 286.185 389.068 286.185 387.918V373.473H290.205V388.053C290.205 389.523 289.9 390.813 289.29 391.923C288.69 393.033 287.845 393.898 286.755 394.518C285.665 395.138 284.39 395.448 282.93 395.448ZM300.063 395.448C298.623 395.448 297.318 395.198 296.148 394.698C294.978 394.198 293.988 393.473 293.178 392.523C292.368 391.573 291.778 390.443 291.408 389.133L295.098 388.068C295.448 389.268 296.043 390.188 296.883 390.828C297.733 391.468 298.783 391.788 300.033 391.788C301.053 391.788 301.843 391.573 302.403 391.143C302.973 390.703 303.258 390.093 303.258 389.313V389.148C303.258 388.488 303.023 387.938 302.553 387.498C302.083 387.048 301.273 386.603 300.123 386.163L297.183 385.053C294.153 383.903 292.638 381.953 292.638 379.203V379.128C292.638 377.908 292.938 376.838 293.538 375.918C294.138 374.988 294.968 374.268 296.028 373.758C297.098 373.238 298.338 372.978 299.748 372.978C301.658 372.978 303.238 373.413 304.488 374.283C305.748 375.153 306.648 376.433 307.188 378.123L303.513 379.248C302.963 377.508 301.708 376.638 299.748 376.638C298.798 376.638 298.038 376.848 297.468 377.268C296.908 377.678 296.628 378.238 296.628 378.948V379.068C296.628 379.628 296.823 380.103 297.213 380.493C297.603 380.883 298.253 381.253 299.163 381.603L302.088 382.713C303.868 383.393 305.173 384.253 306.003 385.293C306.833 386.323 307.248 387.618 307.248 389.178V389.298C307.248 390.538 306.948 391.618 306.348 392.538C305.748 393.458 304.908 394.173 303.828 394.683C302.758 395.193 301.503 395.448 300.063 395.448ZM308.766 394.953V373.473H314.841C316.641 373.473 318.196 373.898 319.506 374.748C320.816 375.588 321.821 376.788 322.521 378.348C323.231 379.898 323.586 381.748 323.586 383.898V384.528C323.586 386.668 323.231 388.518 322.521 390.078C321.821 391.638 320.816 392.843 319.506 393.693C318.196 394.533 316.641 394.953 314.841 394.953H308.766ZM312.741 391.203H314.766C316.336 391.203 317.516 390.653 318.306 389.553C319.096 388.443 319.491 386.793 319.491 384.603V383.823C319.491 381.633 319.091 379.988 318.291 378.888C317.501 377.778 316.326 377.223 314.766 377.223H312.741V391.203ZM333.235 395.448C331.505 395.448 329.995 394.998 328.705 394.098C327.425 393.198 326.43 391.933 325.72 390.303C325.01 388.663 324.655 386.738 324.655 384.528V383.898C324.655 381.658 325 379.723 325.69 378.093C326.38 376.453 327.355 375.193 328.615 374.313C329.875 373.423 331.37 372.978 333.1 372.978C334.89 372.978 336.395 373.468 337.615 374.448C338.835 375.428 339.69 376.838 340.18 378.678L336.49 379.863C336.18 378.783 335.75 377.998 335.2 377.508C334.65 377.008 333.93 376.758 333.04 376.758C331.67 376.758 330.61 377.373 329.86 378.603C329.12 379.823 328.75 381.563 328.75 383.823V384.603C328.75 386.833 329.14 388.568 329.92 389.808C330.71 391.048 331.81 391.668 333.22 391.668C334.99 391.668 336.17 390.613 336.76 388.503L340.465 389.658C339.975 391.508 339.1 392.938 337.84 393.948C336.59 394.948 335.055 395.448 333.235 395.448Z" fill="#16A349"/>
<circle cx="148.095" cy="383.541" r="14.6156" fill="#3F82FF"/>
</g>
<g class="quest-card">
<rect x="254" y="459" width="490" height="269.953" stroke="#ECE9E9" stroke-opacity="0.27" stroke-width="2"/>
<rect x="287" y="495" width="346" height="28" fill="#3F3F3F"/>
<rect x="287" y="535" width="346" height="28" fill="#3F3F3F"/>
<rect x="287" y="575" width="212" height="28" fill="#3F3F3F"/>
<path d="M330.89 697.953V694.668L338.225 686.538C339.055 685.618 339.62 684.863 339.92 684.273C340.23 683.683 340.385 683.058 340.385 682.398V682.278C340.385 681.538 340.17 680.958 339.74 680.538C339.32 680.118 338.73 679.908 337.97 679.908C336.48 679.908 335.36 680.773 334.61 682.503L330.83 681.003C331.49 679.383 332.465 678.143 333.755 677.283C335.045 676.413 336.55 675.978 338.27 675.978C339.53 675.978 340.635 676.223 341.585 676.713C342.545 677.203 343.29 677.883 343.82 678.753C344.35 679.623 344.615 680.643 344.615 681.813V681.963C344.615 682.693 344.505 683.388 344.285 684.048C344.065 684.708 343.69 685.418 343.16 686.178C342.64 686.928 341.915 687.808 340.985 688.818L336.17 694.068V694.203H345.005V697.953H330.89ZM348.668 692.163L347.408 689.118L360.323 682.248L361.568 685.293L348.668 692.163ZM354.503 698.448C352.063 698.448 350.158 697.508 348.788 695.628C347.418 693.738 346.733 691.073 346.733 687.633V686.763C346.733 683.323 347.418 680.668 348.788 678.798C350.158 676.918 352.063 675.978 354.503 675.978C356.943 675.978 358.843 676.918 360.203 678.798C361.563 680.668 362.243 683.323 362.243 686.763V687.633C362.243 691.073 361.563 693.738 360.203 695.628C358.843 697.508 356.943 698.448 354.503 698.448ZM354.413 694.863C355.763 694.863 356.768 694.268 357.428 693.078C358.098 691.888 358.433 690.118 358.433 687.768V686.628C358.433 684.208 358.108 682.428 357.458 681.288C356.818 680.138 355.853 679.563 354.563 679.563C353.213 679.563 352.203 680.153 351.533 681.333C350.873 682.513 350.543 684.278 350.543 686.628V687.768C350.543 690.188 350.863 691.978 351.503 693.138C352.153 694.288 353.123 694.863 354.413 694.863ZM365.157 692.163L363.897 689.118L376.812 682.248L378.057 685.293L365.157 692.163ZM370.992 698.448C368.552 698.448 366.647 697.508 365.277 695.628C363.907 693.738 363.222 691.073 363.222 687.633V686.763C363.222 683.323 363.907 680.668 365.277 678.798C366.647 676.918 368.552 675.978 370.992 675.978C373.432 675.978 375.332 676.918 376.692 678.798C378.052 680.668 378.732 683.323 378.732 686.763V687.633C378.732 691.073 378.052 693.738 376.692 695.628C375.332 697.508 373.432 698.448 370.992 698.448ZM370.902 694.863C372.252 694.863 373.257 694.268 373.917 693.078C374.587 691.888 374.922 690.118 374.922 687.768V686.628C374.922 684.208 374.597 682.428 373.947 681.288C373.307 680.138 372.342 679.563 371.052 679.563C369.702 679.563 368.692 680.153 368.022 681.333C367.362 682.513 367.032 684.278 367.032 686.628V687.768C367.032 690.188 367.352 691.978 367.992 693.138C368.642 694.288 369.612 694.863 370.902 694.863ZM403.953 698.448C402.503 698.448 401.228 698.138 400.128 697.518C399.038 696.898 398.188 696.033 397.578 694.923C396.978 693.813 396.678 692.523 396.678 691.053V676.473H400.698V690.918C400.698 692.068 400.988 692.983 401.568 693.663C402.148 694.333 402.943 694.668 403.953 694.668C404.973 694.668 405.768 694.333 406.338 693.663C406.918 692.983 407.208 692.068 407.208 690.918V676.473H411.228V691.053C411.228 692.523 410.923 693.813 410.313 694.923C409.713 696.033 408.868 696.898 407.778 697.518C406.688 698.138 405.413 698.448 403.953 698.448ZM421.086 698.448C419.646 698.448 418.341 698.198 417.171 697.698C416.001 697.198 415.011 696.473 414.201 695.523C413.391 694.573 412.801 693.443 412.431 692.133L416.121 691.068C416.471 692.268 417.066 693.188 417.906 693.828C418.756 694.468 419.806 694.788 421.056 694.788C422.076 694.788 422.866 694.573 423.426 694.143C423.996 693.703 424.281 693.093 424.281 692.313V692.148C424.281 691.488 424.046 690.938 423.576 690.498C423.106 690.048 422.296 689.603 421.146 689.163L418.206 688.053C415.176 686.903 413.661 684.953 413.661 682.203V682.128C413.661 680.908 413.961 679.838 414.561 678.918C415.161 677.988 415.991 677.268 417.051 676.758C418.121 676.238 419.361 675.978 420.771 675.978C422.681 675.978 424.261 676.413 425.511 677.283C426.771 678.153 427.671 679.433 428.211 681.123L424.536 682.248C423.986 680.508 422.731 679.638 420.771 679.638C419.821 679.638 419.061 679.848 418.491 680.268C417.931 680.678 417.651 681.238 417.651 681.948V682.068C417.651 682.628 417.846 683.103 418.236 683.493C418.626 683.883 419.276 684.253 420.186 684.603L423.111 685.713C424.891 686.393 426.196 687.253 427.026 688.293C427.856 689.323 428.271 690.618 428.271 692.178V692.298C428.271 693.538 427.971 694.618 427.371 695.538C426.771 696.458 425.931 697.173 424.851 697.683C423.781 698.193 422.526 698.448 421.086 698.448ZM429.79 697.953V676.473H435.865C437.665 676.473 439.22 676.898 440.53 677.748C441.84 678.588 442.845 679.788 443.545 681.348C444.255 682.898 444.61 684.748 444.61 686.898V687.528C444.61 689.668 444.255 691.518 443.545 693.078C442.845 694.638 441.84 695.843 440.53 696.693C439.22 697.533 437.665 697.953 435.865 697.953H429.79ZM433.765 694.203H435.79C437.36 694.203 438.54 693.653 439.33 692.553C440.12 691.443 440.515 689.793 440.515 687.603V686.823C440.515 684.633 440.115 682.988 439.315 681.888C438.525 680.778 437.35 680.223 435.79 680.223H433.765V694.203ZM454.258 698.448C452.528 698.448 451.018 697.998 449.728 697.098C448.448 696.198 447.453 694.933 446.743 693.303C446.033 691.663 445.678 689.738 445.678 687.528V686.898C445.678 684.658 446.023 682.723 446.713 681.093C447.403 679.453 448.378 678.193 449.638 677.313C450.898 676.423 452.393 675.978 454.123 675.978C455.913 675.978 457.418 676.468 458.638 677.448C459.858 678.428 460.713 679.838 461.203 681.678L457.513 682.863C457.203 681.783 456.773 680.998 456.223 680.508C455.673 680.008 454.953 679.758 454.063 679.758C452.693 679.758 451.633 680.373 450.883 681.603C450.143 682.823 449.773 684.563 449.773 686.823V687.603C449.773 689.833 450.163 691.568 450.943 692.808C451.733 694.048 452.833 694.668 454.243 694.668C456.013 694.668 457.193 693.613 457.783 691.503L461.488 692.658C460.998 694.508 460.123 695.938 458.863 696.948C457.613 697.948 456.078 698.448 454.258 698.448Z" fill="#16A349"/>
<circle cx="302.095" cy="686.541" r="14.6156" fill="#3F82FF"/>
</g>
<g class="quest-card">
<rect x="10" y="764" width="490" height="269.953" stroke="#ECE9E9" stroke-opacity="0.27" stroke-width="2"/>
<rect x="43" y="800" width="274" height="28" fill="#3F3F3F"/>
<rect x="43" y="840" width="312" height="28" fill="#3F3F3F"/>
<rect x="43" y="880" width="302" height="28" fill="#3F3F3F"/>
<path d="M93.175 1001.45V986.303L88.48 988.703L86.755 985.313L94.36 981.473H97.165V1001.45H93.175ZM87.565 1002.95V999.233H102.115V1002.95H87.565ZM103.378 1002.95V999.668L110.713 991.538C111.543 990.618 112.108 989.863 112.408 989.273C112.718 988.683 112.873 988.058 112.873 987.398V987.278C112.873 986.538 112.658 985.958 112.228 985.538C111.808 985.118 111.218 984.908 110.458 984.908C108.968 984.908 107.848 985.773 107.098 987.503L103.318 986.003C103.978 984.383 104.953 983.143 106.243 982.283C107.533 981.413 109.038 980.978 110.758 980.978C112.018 980.978 113.123 981.223 114.073 981.713C115.033 982.203 115.778 982.883 116.308 983.753C116.838 984.623 117.103 985.643 117.103 986.813V986.963C117.103 987.693 116.993 988.388 116.773 989.048C116.553 989.708 116.178 990.418 115.648 991.178C115.128 991.928 114.403 992.808 113.473 993.818L108.658 999.068V999.203H117.493V1002.95H103.378ZM121.157 997.163L119.897 994.118L132.812 987.248L134.057 990.293L121.157 997.163ZM126.992 1003.45C124.552 1003.45 122.647 1002.51 121.277 1000.63C119.907 998.738 119.222 996.073 119.222 992.633V991.763C119.222 988.323 119.907 985.668 121.277 983.798C122.647 981.918 124.552 980.978 126.992 980.978C129.432 980.978 131.332 981.918 132.692 983.798C134.052 985.668 134.732 988.323 134.732 991.763V992.633C134.732 996.073 134.052 998.738 132.692 1000.63C131.332 1002.51 129.432 1003.45 126.992 1003.45ZM126.902 999.863C128.252 999.863 129.257 999.268 129.917 998.078C130.587 996.888 130.922 995.118 130.922 992.768V991.628C130.922 989.208 130.597 987.428 129.947 986.288C129.307 985.138 128.342 984.563 127.052 984.563C125.702 984.563 124.692 985.153 124.022 986.333C123.362 987.513 123.032 989.278 123.032 991.628V992.768C123.032 995.188 123.352 996.978 123.992 998.138C124.642 999.288 125.612 999.863 126.902 999.863ZM159.953 1003.45C158.503 1003.45 157.228 1003.14 156.128 1002.52C155.038 1001.9 154.188 1001.03 153.578 999.923C152.978 998.813 152.678 997.523 152.678 996.053V981.473H156.698V995.918C156.698 997.068 156.988 997.983 157.568 998.663C158.148 999.333 158.943 999.668 159.953 999.668C160.973 999.668 161.768 999.333 162.338 998.663C162.918 997.983 163.208 997.068 163.208 995.918V981.473H167.228V996.053C167.228 997.523 166.923 998.813 166.313 999.923C165.713 1001.03 164.868 1001.9 163.778 1002.52C162.688 1003.14 161.413 1003.45 159.953 1003.45ZM177.086 1003.45C175.646 1003.45 174.341 1003.2 173.171 1002.7C172.001 1002.2 171.011 1001.47 170.201 1000.52C169.391 999.573 168.801 998.443 168.431 997.133L172.121 996.068C172.471 997.268 173.066 998.188 173.906 998.828C174.756 999.468 175.806 999.788 177.056 999.788C178.076 999.788 178.866 999.573 179.426 999.143C179.996 998.703 180.281 998.093 180.281 997.313V997.148C180.281 996.488 180.046 995.938 179.576 995.498C179.106 995.048 178.296 994.603 177.146 994.163L174.206 993.053C171.176 991.903 169.661 989.953 169.661 987.203V987.128C169.661 985.908 169.961 984.838 170.561 983.918C171.161 982.988 171.991 982.268 173.051 981.758C174.121 981.238 175.361 980.978 176.771 980.978C178.681 980.978 180.261 981.413 181.511 982.283C182.771 983.153 183.671 984.433 184.211 986.123L180.536 987.248C179.986 985.508 178.731 984.638 176.771 984.638C175.821 984.638 175.061 984.848 174.491 985.268C173.931 985.678 173.651 986.238 173.651 986.948V987.068C173.651 987.628 173.846 988.103 174.236 988.493C174.626 988.883 175.276 989.253 176.186 989.603L179.111 990.713C180.891 991.393 182.196 992.253 183.026 993.293C183.856 994.323 184.271 995.618 184.271 997.178V997.298C184.271 998.538 183.971 999.618 183.371 1000.54C182.771 1001.46 181.931 1002.17 180.851 1002.68C179.781 1003.19 178.526 1003.45 177.086 1003.45ZM185.79 1002.95V981.473H191.865C193.665 981.473 195.22 981.898 196.53 982.748C197.84 983.588 198.845 984.788 199.545 986.348C200.255 987.898 200.61 989.748 200.61 991.898V992.528C200.61 994.668 200.255 996.518 199.545 998.078C198.845 999.638 197.84 1000.84 196.53 1001.69C195.22 1002.53 193.665 1002.95 191.865 1002.95H185.79ZM189.765 999.203H191.79C193.36 999.203 194.54 998.653 195.33 997.553C196.12 996.443 196.515 994.793 196.515 992.603V991.823C196.515 989.633 196.115 987.988 195.315 986.888C194.525 985.778 193.35 985.223 191.79 985.223H189.765V999.203ZM210.258 1003.45C208.528 1003.45 207.018 1003 205.728 1002.1C204.448 1001.2 203.453 999.933 202.743 998.303C202.033 996.663 201.678 994.738 201.678 992.528V991.898C201.678 989.658 202.023 987.723 202.713 986.093C203.403 984.453 204.378 983.193 205.638 982.313C206.898 981.423 208.393 980.978 210.123 980.978C211.913 980.978 213.418 981.468 214.638 982.448C215.858 983.428 216.713 984.838 217.203 986.678L213.513 987.863C213.203 986.783 212.773 985.998 212.223 985.508C211.673 985.008 210.953 984.758 210.063 984.758C208.693 984.758 207.633 985.373 206.883 986.603C206.143 987.823 205.773 989.563 205.773 991.823V992.603C205.773 994.833 206.163 996.568 206.943 997.808C207.733 999.048 208.833 999.668 210.243 999.668C212.013 999.668 213.193 998.613 213.783 996.503L217.488 997.658C216.998 999.508 216.123 1000.94 214.863 1001.95C213.613 1002.95 212.078 1003.45 210.258 1003.45Z" fill="#16A349"/>
<circle cx="58.0951" cy="991.541" r="14.6156" fill="#3F82FF"/>
</g>
<g class="quest-card">
<rect x="630" y="156" width="490" height="269.953" stroke="#ECE9E9" stroke-opacity="0.27" stroke-width="2"/>
<rect x="663" y="192" width="289" height="28" fill="#3F3F3F"/>
<rect x="663" y="232" width="334" height="28" fill="#3F3F3F"/>
<rect x="663" y="272" width="302" height="28" fill="#3F3F3F"/>
<path d="M714.03 373.008C715.5 373.008 716.8 373.333 717.93 373.983C719.06 374.623 719.945 375.508 720.585 376.638C721.235 377.758 721.56 379.048 721.56 380.508V380.718C721.56 381.608 721.44 382.488 721.2 383.358C720.96 384.228 720.58 385.138 720.06 386.088C719.54 387.038 718.85 388.083 717.99 389.223L713.04 395.748L709.77 393.378L713.43 388.998C713.82 388.538 714.195 388.133 714.555 387.783C714.915 387.433 715.31 387.088 715.74 386.748L715.68 386.643C714.76 387.193 713.72 387.468 712.56 387.468C711.34 387.468 710.27 387.173 709.35 386.583C708.43 385.993 707.715 385.183 707.205 384.153C706.695 383.113 706.44 381.933 706.44 380.613V380.418C706.44 378.968 706.76 377.688 707.4 376.578C708.05 375.468 708.945 374.598 710.085 373.968C711.235 373.328 712.55 373.008 714.03 373.008ZM714 376.803C712.91 376.803 712.05 377.128 711.42 377.778C710.8 378.428 710.49 379.288 710.49 380.358V380.703C710.49 381.773 710.8 382.638 711.42 383.298C712.04 383.948 712.9 384.273 714 384.273C715.09 384.273 715.945 383.943 716.565 383.283C717.195 382.623 717.51 381.763 717.51 380.703V380.358C717.51 379.288 717.195 378.428 716.565 377.778C715.945 377.128 715.09 376.803 714 376.803ZM724.668 389.163L723.408 386.118L736.323 379.248L737.568 382.293L724.668 389.163ZM730.503 395.448C728.063 395.448 726.158 394.508 724.788 392.628C723.418 390.738 722.733 388.073 722.733 384.633V383.763C722.733 380.323 723.418 377.668 724.788 375.798C726.158 373.918 728.063 372.978 730.503 372.978C732.943 372.978 734.843 373.918 736.203 375.798C737.563 377.668 738.243 380.323 738.243 383.763V384.633C738.243 388.073 737.563 390.738 736.203 392.628C734.843 394.508 732.943 395.448 730.503 395.448ZM730.413 391.863C731.763 391.863 732.768 391.268 733.428 390.078C734.098 388.888 734.433 387.118 734.433 384.768V383.628C734.433 381.208 734.108 379.428 733.458 378.288C732.818 377.138 731.853 376.563 730.563 376.563C729.213 376.563 728.203 377.153 727.533 378.333C726.873 379.513 726.543 381.278 726.543 383.628V384.768C726.543 387.188 726.863 388.978 727.503 390.138C728.153 391.288 729.123 391.863 730.413 391.863ZM741.157 389.163L739.897 386.118L752.812 379.248L754.057 382.293L741.157 389.163ZM746.992 395.448C744.552 395.448 742.647 394.508 741.277 392.628C739.907 390.738 739.222 388.073 739.222 384.633V383.763C739.222 380.323 739.907 377.668 741.277 375.798C742.647 373.918 744.552 372.978 746.992 372.978C749.432 372.978 751.332 373.918 752.692 375.798C754.052 377.668 754.732 380.323 754.732 383.763V384.633C754.732 388.073 754.052 390.738 752.692 392.628C751.332 394.508 749.432 395.448 746.992 395.448ZM746.902 391.863C748.252 391.863 749.257 391.268 749.917 390.078C750.587 388.888 750.922 387.118 750.922 384.768V383.628C750.922 381.208 750.597 379.428 749.947 378.288C749.307 377.138 748.342 376.563 747.052 376.563C745.702 376.563 744.692 377.153 744.022 378.333C743.362 379.513 743.032 381.278 743.032 383.628V384.768C743.032 387.188 743.352 388.978 743.992 390.138C744.642 391.288 745.612 391.863 746.902 391.863ZM779.953 395.448C778.503 395.448 777.228 395.138 776.128 394.518C775.038 393.898 774.188 393.033 773.578 391.923C772.978 390.813 772.678 389.523 772.678 388.053V373.473H776.698V387.918C776.698 389.068 776.988 389.983 777.568 390.663C778.148 391.333 778.943 391.668 779.953 391.668C780.973 391.668 781.768 391.333 782.338 390.663C782.918 389.983 783.208 389.068 783.208 387.918V373.473H787.228V388.053C787.228 389.523 786.923 390.813 786.313 391.923C785.713 393.033 784.868 393.898 783.778 394.518C782.688 395.138 781.413 395.448 779.953 395.448ZM797.086 395.448C795.646 395.448 794.341 395.198 793.171 394.698C792.001 394.198 791.011 393.473 790.201 392.523C789.391 391.573 788.801 390.443 788.431 389.133L792.121 388.068C792.471 389.268 793.066 390.188 793.906 390.828C794.756 391.468 795.806 391.788 797.056 391.788C798.076 391.788 798.866 391.573 799.426 391.143C799.996 390.703 800.281 390.093 800.281 389.313V389.148C800.281 388.488 800.046 387.938 799.576 387.498C799.106 387.048 798.296 386.603 797.146 386.163L794.206 385.053C791.176 383.903 789.661 381.953 789.661 379.203V379.128C789.661 377.908 789.961 376.838 790.561 375.918C791.161 374.988 791.991 374.268 793.051 373.758C794.121 373.238 795.361 372.978 796.771 372.978C798.681 372.978 800.261 373.413 801.511 374.283C802.771 375.153 803.671 376.433 804.211 378.123L800.536 379.248C799.986 377.508 798.731 376.638 796.771 376.638C795.821 376.638 795.061 376.848 794.491 377.268C793.931 377.678 793.651 378.238 793.651 378.948V379.068C793.651 379.628 793.846 380.103 794.236 380.493C794.626 380.883 795.276 381.253 796.186 381.603L799.111 382.713C800.891 383.393 802.196 384.253 803.026 385.293C803.856 386.323 804.271 387.618 804.271 389.178V389.298C804.271 390.538 803.971 391.618 803.371 392.538C802.771 393.458 801.931 394.173 800.851 394.683C799.781 395.193 798.526 395.448 797.086 395.448ZM805.79 394.953V373.473H811.865C813.665 373.473 815.22 373.898 816.53 374.748C817.84 375.588 818.845 376.788 819.545 378.348C820.255 379.898 820.61 381.748 820.61 383.898V384.528C820.61 386.668 820.255 388.518 819.545 390.078C818.845 391.638 817.84 392.843 816.53 393.693C815.22 394.533 813.665 394.953 811.865 394.953H805.79ZM809.765 391.203H811.79C813.36 391.203 814.54 390.653 815.33 389.553C816.12 388.443 816.515 386.793 816.515 384.603V383.823C816.515 381.633 816.115 379.988 815.315 378.888C814.525 377.778 813.35 377.223 811.79 377.223H809.765V391.203ZM830.258 395.448C828.528 395.448 827.018 394.998 825.728 394.098C824.448 393.198 823.453 391.933 822.743 390.303C822.033 388.663 821.678 386.738 821.678 384.528V383.898C821.678 381.658 822.023 379.723 822.713 378.093C823.403 376.453 824.378 375.193 825.638 374.313C826.898 373.423 828.393 372.978 830.123 372.978C831.913 372.978 833.418 373.468 834.638 374.448C835.858 375.428 836.713 376.838 837.203 378.678L833.513 379.863C833.203 378.783 832.773 377.998 832.223 377.508C831.673 377.008 830.953 376.758 830.063 376.758C828.693 376.758 827.633 377.373 826.883 378.603C826.143 379.823 825.773 381.563 825.773 383.823V384.603C825.773 386.833 826.163 388.568 826.943 389.808C827.733 391.048 828.833 391.668 830.243 391.668C832.013 391.668 833.193 390.613 833.783 388.503L837.488 389.658C836.998 391.508 836.123 392.938 834.863 393.948C833.613 394.948 832.078 395.448 830.258 395.448Z" fill="#16A349"/>
<circle cx="678.095" cy="383.541" r="14.6156" fill="#3F82FF"/>
</g>
<g class="quest-card">
<rect x="784" y="459" width="490" height="269.953" stroke="#ECE9E9" stroke-opacity="0.27" stroke-width="2"/>
<path d="M860.89 697.953V694.668L868.225 686.538C869.055 685.618 869.62 684.863 869.92 684.273C870.23 683.683 870.385 683.058 870.385 682.398V682.278C870.385 681.538 870.17 680.958 869.74 680.538C869.32 680.118 868.73 679.908 867.97 679.908C866.48 679.908 865.36 680.773 864.61 682.503L860.83 681.003C861.49 679.383 862.465 678.143 863.755 677.283C865.045 676.413 866.55 675.978 868.27 675.978C869.53 675.978 870.635 676.223 871.585 676.713C872.545 677.203 873.29 677.883 873.82 678.753C874.35 679.623 874.615 680.643 874.615 681.813V681.963C874.615 682.693 874.505 683.388 874.285 684.048C874.065 684.708 873.69 685.418 873.16 686.178C872.64 686.928 871.915 687.808 870.985 688.818L866.17 694.068V694.203H875.005V697.953H860.89ZM882.883 703.443L880.633 701.853L884.593 696.678L884.533 697.878C884.093 697.898 883.658 697.813 883.228 697.623C882.808 697.423 882.463 697.128 882.193 696.738C881.923 696.348 881.788 695.873 881.788 695.313C881.788 694.543 882.043 693.898 882.553 693.378C883.073 692.848 883.753 692.583 884.593 692.583C885.493 692.583 886.198 692.863 886.708 693.423C887.228 693.983 887.488 694.693 887.488 695.553C887.488 696.153 887.373 696.723 887.143 697.263C886.913 697.803 886.558 698.398 886.078 699.048L882.883 703.443ZM895.157 692.163L893.897 689.118L906.812 682.248L908.057 685.293L895.157 692.163ZM900.992 698.448C898.552 698.448 896.647 697.508 895.277 695.628C893.907 693.738 893.222 691.073 893.222 687.633V686.763C893.222 683.323 893.907 680.668 895.277 678.798C896.647 676.918 898.552 675.978 900.992 675.978C903.432 675.978 905.332 676.918 906.692 678.798C908.052 680.668 908.732 683.323 908.732 686.763V687.633C908.732 691.073 908.052 693.738 906.692 695.628C905.332 697.508 903.432 698.448 900.992 698.448ZM900.902 694.863C902.252 694.863 903.257 694.268 903.917 693.078C904.587 691.888 904.922 690.118 904.922 687.768V686.628C904.922 684.208 904.597 682.428 903.947 681.288C903.307 680.138 902.342 679.563 901.052 679.563C899.702 679.563 898.692 680.153 898.022 681.333C897.362 682.513 897.032 684.278 897.032 686.628V687.768C897.032 690.188 897.352 691.978 897.992 693.138C898.642 694.288 899.612 694.863 900.902 694.863ZM911.645 692.163L910.385 689.118L923.3 682.248L924.545 685.293L911.645 692.163ZM917.48 698.448C915.04 698.448 913.135 697.508 911.765 695.628C910.395 693.738 909.71 691.073 909.71 687.633V686.763C909.71 683.323 910.395 680.668 911.765 678.798C913.135 676.918 915.04 675.978 917.48 675.978C919.92 675.978 921.82 676.918 923.18 678.798C924.54 680.668 925.22 683.323 925.22 686.763V687.633C925.22 691.073 924.54 693.738 923.18 695.628C921.82 697.508 919.92 698.448 917.48 698.448ZM917.39 694.863C918.74 694.863 919.745 694.268 920.405 693.078C921.075 691.888 921.41 690.118 921.41 687.768V686.628C921.41 684.208 921.085 682.428 920.435 681.288C919.795 680.138 918.83 679.563 917.54 679.563C916.19 679.563 915.18 680.153 914.51 681.333C913.85 682.513 913.52 684.278 913.52 686.628V687.768C913.52 690.188 913.84 691.978 914.48 693.138C915.13 694.288 916.1 694.863 917.39 694.863ZM928.133 692.163L926.873 689.118L939.788 682.248L941.033 685.293L928.133 692.163ZM933.968 698.448C931.528 698.448 929.623 697.508 928.253 695.628C926.883 693.738 926.198 691.073 926.198 687.633V686.763C926.198 683.323 926.883 680.668 928.253 678.798C929.623 676.918 931.528 675.978 933.968 675.978C936.408 675.978 938.308 676.918 939.668 678.798C941.028 680.668 941.708 683.323 941.708 686.763V687.633C941.708 691.073 941.028 693.738 939.668 695.628C938.308 697.508 936.408 698.448 933.968 698.448ZM933.878 694.863C935.228 694.863 936.233 694.268 936.893 693.078C937.563 691.888 937.898 690.118 937.898 687.768V686.628C937.898 684.208 937.573 682.428 936.923 681.288C936.283 680.138 935.318 679.563 934.028 679.563C932.678 679.563 931.668 680.153 930.998 681.333C930.338 682.513 930.008 684.278 930.008 686.628V687.768C930.008 690.188 930.328 691.978 930.968 693.138C931.618 694.288 932.588 694.863 933.878 694.863ZM966.93 698.448C965.48 698.448 964.205 698.138 963.105 697.518C962.015 696.898 961.165 696.033 960.555 694.923C959.955 693.813 959.655 692.523 959.655 691.053V676.473H963.675V690.918C963.675 692.068 963.965 692.983 964.545 693.663C965.125 694.333 965.92 694.668 966.93 694.668C967.95 694.668 968.745 694.333 969.315 693.663C969.895 692.983 970.185 692.068 970.185 690.918V676.473H974.205V691.053C974.205 692.523 973.9 693.813 973.29 694.923C972.69 696.033 971.845 696.898 970.755 697.518C969.665 698.138 968.39 698.448 966.93 698.448ZM984.063 698.448C982.623 698.448 981.318 698.198 980.148 697.698C978.978 697.198 977.988 696.473 977.178 695.523C976.368 694.573 975.778 693.443 975.408 692.133L979.098 691.068C979.448 692.268 980.043 693.188 980.883 693.828C981.733 694.468 982.783 694.788 984.033 694.788C985.053 694.788 985.843 694.573 986.403 694.143C986.973 693.703 987.258 693.093 987.258 692.313V692.148C987.258 691.488 987.023 690.938 986.553 690.498C986.083 690.048 985.273 689.603 984.123 689.163L981.183 688.053C978.153 686.903 976.638 684.953 976.638 682.203V682.128C976.638 680.908 976.938 679.838 977.538 678.918C978.138 677.988 978.968 677.268 980.028 676.758C981.098 676.238 982.338 675.978 983.748 675.978C985.658 675.978 987.238 676.413 988.488 677.283C989.748 678.153 990.648 679.433 991.188 681.123L987.513 682.248C986.963 680.508 985.708 679.638 983.748 679.638C982.798 679.638 982.038 679.848 981.468 680.268C980.908 680.678 980.628 681.238 980.628 681.948V682.068C980.628 682.628 980.823 683.103 981.213 683.493C981.603 683.883 982.253 684.253 983.163 684.603L986.088 685.713C987.868 686.393 989.173 687.253 990.003 688.293C990.833 689.323 991.248 690.618 991.248 692.178V692.298C991.248 693.538 990.948 694.618 990.348 695.538C989.748 696.458 988.908 697.173 987.828 697.683C986.758 698.193 985.503 698.448 984.063 698.448ZM992.766 697.953V676.473H998.841C1000.64 676.473 1002.2 676.898 1003.51 677.748C1004.82 678.588 1005.82 679.788 1006.52 681.348C1007.23 682.898 1007.59 684.748 1007.59 686.898V687.528C1007.59 689.668 1007.23 691.518 1006.52 693.078C1005.82 694.638 1004.82 695.843 1003.51 696.693C1002.2 697.533 1000.64 697.953 998.841 697.953H992.766ZM996.741 694.203H998.766C1000.34 694.203 1001.52 693.653 1002.31 692.553C1003.1 691.443 1003.49 689.793 1003.49 687.603V686.823C1003.49 684.633 1003.09 682.988 1002.29 681.888C1001.5 680.778 1000.33 680.223 998.766 680.223H996.741V694.203ZM1017.23 698.448C1015.5 698.448 1013.99 697.998 1012.7 697.098C1011.42 696.198 1010.43 694.933 1009.72 693.303C1009.01 691.663 1008.65 689.738 1008.65 687.528V686.898C1008.65 684.658 1009 682.723 1009.69 681.093C1010.38 679.453 1011.35 678.193 1012.61 677.313C1013.87 676.423 1015.37 675.978 1017.1 675.978C1018.89 675.978 1020.39 676.468 1021.61 677.448C1022.83 678.428 1023.69 679.838 1024.18 681.678L1020.49 682.863C1020.18 681.783 1019.75 680.998 1019.2 680.508C1018.65 680.008 1017.93 679.758 1017.04 679.758C1015.67 679.758 1014.61 680.373 1013.86 681.603C1013.12 682.823 1012.75 684.563 1012.75 686.823V687.603C1012.75 689.833 1013.14 691.568 1013.92 692.808C1014.71 694.048 1015.81 694.668 1017.22 694.668C1018.99 694.668 1020.17 693.613 1020.76 691.503L1024.46 692.658C1023.97 694.508 1023.1 695.938 1021.84 696.948C1020.59 697.948 1019.05 698.448 1017.23 698.448Z" fill="#16A349"/>
<circle cx="832.095" cy="686.541" r="14.6156" fill="#3F82FF"/>
</g>
<g class="quest-card">
<rect x="540" y="764" width="490" height="269.953" stroke="#ECE9E9" stroke-opacity="0.27" stroke-width="2"/>
<path d="M616.89 1002.95V999.668L624.225 991.538C625.055 990.618 625.62 989.863 625.92 989.273C626.23 988.683 626.385 988.058 626.385 987.398V987.278C626.385 986.538 626.17 985.958 625.74 985.538C625.32 985.118 624.73 984.908 623.97 984.908C622.48 984.908 621.36 985.773 620.61 987.503L616.83 986.003C617.49 984.383 618.465 983.143 619.755 982.283C621.045 981.413 622.55 980.978 624.27 980.978C625.53 980.978 626.635 981.223 627.585 981.713C628.545 982.203 629.29 982.883 629.82 983.753C630.35 984.623 630.615 985.643 630.615 986.813V986.963C630.615 987.693 630.505 988.388 630.285 989.048C630.065 989.708 629.69 990.418 629.16 991.178C628.64 991.928 627.915 992.808 626.985 993.818L622.17 999.068V999.203H631.005V1002.95H616.89ZM638.883 1008.44L636.633 1006.85L640.593 1001.68L640.533 1002.88C640.093 1002.9 639.658 1002.81 639.228 1002.62C638.808 1002.42 638.463 1002.13 638.193 1001.74C637.923 1001.35 637.788 1000.87 637.788 1000.31C637.788 999.543 638.043 998.898 638.553 998.378C639.073 997.848 639.753 997.583 640.593 997.583C641.493 997.583 642.198 997.863 642.708 998.423C643.228 998.983 643.488 999.693 643.488 1000.55C643.488 1001.15 643.373 1001.72 643.143 1002.26C642.913 1002.8 642.558 1003.4 642.078 1004.05L638.883 1008.44ZM651.157 997.163L649.897 994.118L662.812 987.248L664.057 990.293L651.157 997.163ZM656.992 1003.45C654.552 1003.45 652.647 1002.51 651.277 1000.63C649.907 998.738 649.222 996.073 649.222 992.633V991.763C649.222 988.323 649.907 985.668 651.277 983.798C652.647 981.918 654.552 980.978 656.992 980.978C659.432 980.978 661.332 981.918 662.692 983.798C664.052 985.668 664.732 988.323 664.732 991.763V992.633C664.732 996.073 664.052 998.738 662.692 1000.63C661.332 1002.51 659.432 1003.45 656.992 1003.45ZM656.902 999.863C658.252 999.863 659.257 999.268 659.917 998.078C660.587 996.888 660.922 995.118 660.922 992.768V991.628C660.922 989.208 660.597 987.428 659.947 986.288C659.307 985.138 658.342 984.563 657.052 984.563C655.702 984.563 654.692 985.153 654.022 986.333C653.362 987.513 653.032 989.278 653.032 991.628V992.768C653.032 995.188 653.352 996.978 653.992 998.138C654.642 999.288 655.612 999.863 656.902 999.863ZM667.645 997.163L666.385 994.118L679.3 987.248L680.545 990.293L667.645 997.163ZM673.48 1003.45C671.04 1003.45 669.135 1002.51 667.765 1000.63C666.395 998.738 665.71 996.073 665.71 992.633V991.763C665.71 988.323 666.395 985.668 667.765 983.798C669.135 981.918 671.04 980.978 673.48 980.978C675.92 980.978 677.82 981.918 679.18 983.798C680.54 985.668 681.22 988.323 681.22 991.763V992.633C681.22 996.073 680.54 998.738 679.18 1000.63C677.82 1002.51 675.92 1003.45 673.48 1003.45ZM673.39 999.863C674.74 999.863 675.745 999.268 676.405 998.078C677.075 996.888 677.41 995.118 677.41 992.768V991.628C677.41 989.208 677.085 987.428 676.435 986.288C675.795 985.138 674.83 984.563 673.54 984.563C672.19 984.563 671.18 985.153 670.51 986.333C669.85 987.513 669.52 989.278 669.52 991.628V992.768C669.52 995.188 669.84 996.978 670.48 998.138C671.13 999.288 672.1 999.863 673.39 999.863ZM684.133 997.163L682.873 994.118L695.788 987.248L697.033 990.293L684.133 997.163ZM689.968 1003.45C687.528 1003.45 685.623 1002.51 684.253 1000.63C682.883 998.738 682.198 996.073 682.198 992.633V991.763C682.198 988.323 682.883 985.668 684.253 983.798C685.623 981.918 687.528 980.978 689.968 980.978C692.408 980.978 694.308 981.918 695.668 983.798C697.028 985.668 697.708 988.323 697.708 991.763V992.633C697.708 996.073 697.028 998.738 695.668 1000.63C694.308 1002.51 692.408 1003.45 689.968 1003.45ZM689.878 999.863C691.228 999.863 692.233 999.268 692.893 998.078C693.563 996.888 693.898 995.118 693.898 992.768V991.628C693.898 989.208 693.573 987.428 692.923 986.288C692.283 985.138 691.318 984.563 690.028 984.563C688.678 984.563 687.668 985.153 686.998 986.333C686.338 987.513 686.008 989.278 686.008 991.628V992.768C686.008 995.188 686.328 996.978 686.968 998.138C687.618 999.288 688.588 999.863 689.878 999.863ZM722.93 1003.45C721.48 1003.45 720.205 1003.14 719.105 1002.52C718.015 1001.9 717.165 1001.03 716.555 999.923C715.955 998.813 715.655 997.523 715.655 996.053V981.473H719.675V995.918C719.675 997.068 719.965 997.983 720.545 998.663C721.125 999.333 721.92 999.668 722.93 999.668C723.95 999.668 724.745 999.333 725.315 998.663C725.895 997.983 726.185 997.068 726.185 995.918V981.473H730.205V996.053C730.205 997.523 729.9 998.813 729.29 999.923C728.69 1001.03 727.845 1001.9 726.755 1002.52C725.665 1003.14 724.39 1003.45 722.93 1003.45ZM740.063 1003.45C738.623 1003.45 737.318 1003.2 736.148 1002.7C734.978 1002.2 733.988 1001.47 733.178 1000.52C732.368 999.573 731.778 998.443 731.408 997.133L735.098 996.068C735.448 997.268 736.043 998.188 736.883 998.828C737.733 999.468 738.783 999.788 740.033 999.788C741.053 999.788 741.843 999.573 742.403 999.143C742.973 998.703 743.258 998.093 743.258 997.313V997.148C743.258 996.488 743.023 995.938 742.553 995.498C742.083 995.048 741.273 994.603 740.123 994.163L737.183 993.053C734.153 991.903 732.638 989.953 732.638 987.203V987.128C732.638 985.908 732.938 984.838 733.538 983.918C734.138 982.988 734.968 982.268 736.028 981.758C737.098 981.238 738.338 980.978 739.748 980.978C741.658 980.978 743.238 981.413 744.488 982.283C745.748 983.153 746.648 984.433 747.188 986.123L743.513 987.248C742.963 985.508 741.708 984.638 739.748 984.638C738.798 984.638 738.038 984.848 737.468 985.268C736.908 985.678 736.628 986.238 736.628 986.948V987.068C736.628 987.628 736.823 988.103 737.213 988.493C737.603 988.883 738.253 989.253 739.163 989.603L742.088 990.713C743.868 991.393 745.173 992.253 746.003 993.293C746.833 994.323 747.248 995.618 747.248 997.178V997.298C747.248 998.538 746.948 999.618 746.348 1000.54C745.748 1001.46 744.908 1002.17 743.828 1002.68C742.758 1003.19 741.503 1003.45 740.063 1003.45ZM748.766 1002.95V981.473H754.841C756.641 981.473 758.196 981.898 759.506 982.748C760.816 983.588 761.821 984.788 762.521 986.348C763.231 987.898 763.586 989.748 763.586 991.898V992.528C763.586 994.668 763.231 996.518 762.521 998.078C761.821 999.638 760.816 1000.84 759.506 1001.69C758.196 1002.53 756.641 1002.95 754.841 1002.95H748.766ZM752.741 999.203H754.766C756.336 999.203 757.516 998.653 758.306 997.553C759.096 996.443 759.491 994.793 759.491 992.603V991.823C759.491 989.633 759.091 987.988 758.291 986.888C757.501 985.778 756.326 985.223 754.766 985.223H752.741V999.203ZM773.235 1003.45C771.505 1003.45 769.995 1003 768.705 1002.1C767.425 1001.2 766.43 999.933 765.72 998.303C765.01 996.663 764.655 994.738 764.655 992.528V991.898C764.655 989.658 765 987.723 765.69 986.093C766.38 984.453 767.355 983.193 768.615 982.313C769.875 981.423 771.37 980.978 773.1 980.978C774.89 980.978 776.395 981.468 777.615 982.448C778.835 983.428 779.69 984.838 780.18 986.678L776.49 987.863C776.18 986.783 775.75 985.998 775.2 985.508C774.65 985.008 773.93 984.758 773.04 984.758C771.67 984.758 770.61 985.373 769.86 986.603C769.12 987.823 768.75 989.563 768.75 991.823V992.603C768.75 994.833 769.14 996.568 769.92 997.808C770.71 999.048 771.81 999.668 773.22 999.668C774.99 999.668 776.17 998.613 776.76 996.503L780.465 997.658C779.975 999.508 779.1 1000.94 777.84 1001.95C776.59 1002.95 775.055 1003.45 773.235 1003.45Z" fill="#16A349"/>
<circle cx="588.095" cy="991.541" r="14.6156" fill="#3F82FF"/>
</g>
</g>
<g id="robot-body">
<path d="M1335.71 571.948C1335.71 516.838 1295.49 470.508 1245.88 468.458L1050.53 460.398C988.96 460.398 867.44 489.878 867.44 489.878L960.71 593.528V714.778C960.71 769.888 1000.93 816.218 1050.54 818.268L1167.28 823.088L1240.23 904.158L1311.1 798.528V797.858C1326.35 780.598 1335.71 756.828 1335.71 730.248V571.938V571.948Z" fill="#F34A42"/>
<path d="M1335.71 571.948C1335.71 516.838 1295.49 470.508 1245.88 468.458L1050.53 460.398C988.95 460.398 867.44 489.878 867.44 489.878L868.09 490.608C875.88 489.088 883.95 488.438 892.23 488.788L1143.05 499.138C1206.75 501.768 1258.39 561.258 1258.39 632.018V835.278C1258.39 860.858 1251.64 884.408 1240.01 903.928L1240.22 904.168L1311.09 798.538V797.868C1326.34 780.608 1335.7 756.838 1335.7 730.258V571.948H1335.71Z" fill="url(#paint0_radial_66_346)"/>
<path d="M1354.2 611.25V749.06L1349.53 751.54L1349.1 751.75L1341.67 755.68L1335.68 758.85L1299.49 777.96L1296.21 779.69L1280.42 788.02C1280.42 788.02 1264.45 792.33 1262.84 691.99C1262.52 671.79 1262.98 655.74 1263.92 642.97C1267.88 589.58 1280.41 593.69 1280.41 593.69L1349.51 610.15L1354.18 611.25H1354.2Z" fill="url(#paint1_linear_66_346)"/>
<path opacity="0.2" d="M1337.67 757.651L1335.68 758.86L1299.49 777.97L1296.21 779.701L1280.42 788.031C1280.42 788.031 1264.45 792.34 1262.84 692C1262.52 671.8 1262.98 655.75 1263.92 642.98C1274.92 685.93 1311.73 760.21 1337.66 757.66L1337.67 757.651Z" fill="url(#paint2_linear_66_346)" style="mix-blend-mode:multiply"/>
<path d="M1352.96 748.69C1366.38 748.69 1377.25 717.959 1377.25 680.05C1377.25 642.141 1366.38 611.41 1352.96 611.41C1339.55 611.41 1328.67 642.141 1328.67 680.05C1328.67 717.959 1339.55 748.69 1352.96 748.69Z" fill="url(#paint3_linear_66_346)"/>
<path d="M835.94 582.939V777.279L810.24 764.409L760.98 739.749L753.23 735.859L752.79 735.649L748.05 733.259C748.05 733.259 738.2 728.159 738.2 672.729C738.2 646.209 740.46 632.329 742.8 625.079C745.37 617.159 748.04 617.119 748.04 617.119L752.78 615.279L810.68 592.759L835.93 582.939H835.94Z" fill="url(#paint4_linear_66_346)"/>
<path opacity="0.2" d="M835.94 735.72V777.27L810.24 764.41L760.98 739.74L753.24 735.86L752.8 735.64V702.33C768.92 625.32 810.18 615.24 810.18 615.24C810.18 615.24 824.73 678.81 835.95 735.71L835.94 735.72Z" fill="url(#paint5_linear_66_346)" style="mix-blend-mode:multiply"/>
<path d="M811.21 600.1L742.8 625.07C745.37 617.15 748.04 617.11 748.04 617.11L752.78 615.27L810.68 592.75L811.2 600.1H811.21Z" fill="url(#paint6_linear_66_346)"/>
<path d="M1143.06 958.639L892.24 948.289C828.54 945.659 776.9 886.169 776.9 815.409V612.149C776.9 541.389 828.54 486.159 892.24 488.779L1143.06 499.129C1206.76 501.759 1258.4 561.249 1258.4 632.009V835.269C1258.4 906.029 1206.76 961.259 1143.06 958.639Z" fill="#F34A42"/>
<path d="M1151.73 563.06L883.57 552C861.45 551.09 843.521 570.27 843.521 594.84V838.22C843.521 862.79 861.45 883.45 883.57 884.36L1151.73 895.42C1173.85 896.33 1191.78 877.15 1191.78 852.58V609.2C1191.78 584.63 1173.85 563.97 1151.73 563.06Z" fill="#241D2F"/>
<path opacity="0.2" d="M1196.18 861.46L1185.32 884.38C1185.32 884.38 1199.4 900.34 1072.35 898.5C968.42 896.99 977.63 887.39 977.63 887.39C1153.31 872.57 1193.55 825.28 1194.66 817.77L1196.17 861.46H1196.18Z" fill="url(#paint7_linear_66_346)" style="mix-blend-mode:multiply"/>
<path d="M1150.51 546.599L884.79 535.639C852.5 534.309 826.33 562.299 826.33 598.169V833.459C826.33 869.329 852.5 899.479 884.79 900.809L1150.51 911.769C1182.8 913.099 1208.97 885.109 1208.97 849.239V613.949C1208.97 578.079 1182.8 547.929 1150.51 546.599ZM1191.78 852.579C1191.78 877.149 1173.85 896.329 1151.73 895.419L883.57 884.359C861.45 883.449 843.52 862.789 843.52 838.219V594.839C843.52 570.269 861.45 551.089 883.57 551.999L1151.73 563.059C1173.85 563.969 1191.78 584.629 1191.78 609.199V852.579Z" fill="url(#paint8_linear_66_346)"/>
<path opacity="0.35" d="M1143.06 499.13L892.24 488.78C828.55 486.15 776.91 541.38 776.91 612.15V815.42C776.91 886.17 828.55 945.67 892.24 948.3L1143.06 958.65C1206.76 961.28 1258.4 906.04 1258.4 835.28V632.01C1258.4 561.25 1206.76 501.76 1143.06 499.13ZM1253.9 830.8C1253.9 901.56 1202.26 956.79 1138.56 954.17L896.73 944.19C833.03 941.56 781.39 882.07 781.39 811.31V616.63C781.39 545.87 833.03 490.64 896.73 493.26L1138.56 503.24C1202.26 505.87 1253.9 565.36 1253.9 636.12V830.8Z" fill="url(#paint9_linear_66_346)"/>
<path d="M1212.56 327.969L1024.64 475.679C1024.64 475.679 1011.08 488.069 1115.01 489.569C1242.05 491.409 1230.94 482.499 1230.94 482.499L1233.96 457.979L1247 351.989C1249.57 331.109 1227.84 315.949 1212.56 327.959V327.969Z" fill="url(#paint10_radial_66_346)"/>
<path d="M844.21 942.4C844.21 942.4 847.38 945.57 849.25 944.42C851.12 943.27 847.81 937.08 847.81 937.08L844.21 939.67V942.41V942.4Z" fill="url(#paint11_linear_66_346)"/>
<path d="M772.73 858.48C772.73 858.48 769.75 855.13 771.01 853.33C772.27 851.53 778.26 855.19 778.26 855.19L775.46 858.63L772.73 858.47V858.48Z" fill="url(#paint12_linear_66_346)"/>
<path d="M848.22 939.18L821.98 960.22L818.43 963.07L818.03 963.39C792.41 981.53 756.93 975.47 738.78 949.85C720.63 924.23 726.7 888.75 752.32 870.6L753.18 869.98L756.8 867.37L775.88 853.58C775.88 853.58 793.09 863.03 816.06 892.89C839.03 922.75 848.21 939.18 848.21 939.18H848.22Z" fill="url(#paint13_radial_66_346)"/>
<path d="M854.651 939.72C853.231 943.37 849.251 944.41 849.251 944.41C851.741 942.81 837.481 923.14 814.911 893.8C791.261 863.06 774.021 850.63 771.141 853.23C771.141 853.23 772.421 849.13 776.101 848.6C779.771 848.07 796.341 857.27 821.151 889.53C845.961 921.78 856.021 936.19 854.651 939.72Z" fill="url(#paint14_linear_66_346)"/>
<path d="M774.42 926.55C759.12 907.13 740.18 897.03 730.18 902.62C729.59 904.85 729.15 907.12 728.84 909.4C729.39 908.19 730.15 907.21 731.1 906.46C732.58 905.31 734.46 904.77 736.63 904.77C745.73 904.77 759.99 914.27 771.48 928.87C782.01 942.25 788.07 957.03 786.91 966.52C786.55 969.54 785.45 971.79 783.65 973.19C783.36 973.41 783.05 973.62 782.72 973.79C784.55 973.87 786.37 973.86 788.2 973.77C789.48 971.95 790.29 969.69 790.61 966.99C791.89 956.55 785.53 940.69 774.41 926.56L774.42 926.55Z" fill="url(#paint15_linear_66_346)"/>
<path d="M794.7 910.209C777.84 888.789 757.55 876.169 744.17 877.619C741.29 877.919 738.72 878.899 736.58 880.559C733.34 883.079 731.37 886.939 730.75 892.019C730.45 894.539 730.49 897.299 730.87 900.249C731.87 896.969 733.18 893.769 734.77 890.709C735.44 887.539 736.82 885.109 738.89 883.509C739.11 883.329 739.35 883.169 739.59 883.009C741.44 881.819 743.71 881.239 746.28 881.239C752.27 881.239 759.9 884.319 767.9 889.769C775.91 895.219 784.29 903.039 791.76 912.529C805.44 929.899 813.3 949.139 811.79 961.529C811.45 964.339 810.63 966.659 809.34 968.439C808.78 969.239 808.12 969.919 807.37 970.489C804.79 972.489 801.3 973.129 797.21 972.549C794.11 973.229 790.97 973.639 787.83 973.779C792.18 975.559 796.28 976.499 799.94 976.499C803.6 976.499 807 975.519 809.66 973.439C812.12 971.539 813.84 968.869 814.8 965.489C815.1 964.399 815.34 963.229 815.49 961.989C817.12 948.659 808.95 928.339 794.69 910.209H794.7Z" fill="url(#paint16_linear_66_346)"/>
<path d="M814.23 894.08C798.57 874.18 780.06 861.63 766.43 860.4C761.65 859.97 757.47 860.93 754.22 863.45C751.24 865.77 749.3 869.18 748.47 873.59C749.7 872.54 750.99 871.54 752.34 870.59L753.2 869.97L754.02 869.38C754.71 868.22 755.57 867.24 756.57 866.45C757.79 865.5 759.21 864.86 760.79 864.48C761.87 864.22 763.02 864.11 764.23 864.11C770.42 864.11 778.31 867.28 786.59 872.92C794.86 878.55 803.53 886.64 811.25 896.43C825.38 914.4 833.51 934.28 831.95 947.08C831.59 950.03 830.73 952.44 829.37 954.3C828.8 955.1 828.13 955.79 827.37 956.37C826.69 956.9 825.96 957.33 825.17 957.67L822 960.21L819.14 962.51C819.33 962.52 819.5 962.52 819.68 962.52C823.56 962.52 826.98 961.51 829.72 959.38C832.66 957.1 834.58 953.75 835.44 949.43C835.57 948.82 835.66 948.19 835.74 947.54C835.88 946.38 835.95 945.17 835.95 943.92C835.95 930.26 827.74 911.2 814.24 894.07L814.23 894.08Z" fill="url(#paint17_linear_66_346)"/>
<path d="M1273.78 950.98C1275.97 914.49 1251.41 892.46 1215.6 889.51C1199.25 888.16 1184.32 893.13 1172.91 902.38L1172.77 902.32L1172.59 902.64C1161.88 911.46 1143.54 943.65 1142.58 967.87C1141.44 996.5 1168.24 1015.82 1195.65 1022.31C1210.58 1025.85 1229.37 1015.67 1229.37 1015.67C1229.37 1015.67 1271.17 994.59 1273.79 950.97L1273.78 950.98Z" fill="url(#paint18_radial_66_346)"/>
<path d="M1231.81 988.298C1229.09 976.838 1221.99 965.528 1211.85 956.428C1201.72 947.348 1189.68 941.528 1178 940.038C1168.44 938.838 1160.02 940.618 1153.62 945.118C1152.07 946.188 1150.65 947.448 1149.35 948.858C1149.27 948.938 1149.16 949.048 1149.08 949.148C1147.88 950.468 1146.85 951.898 1145.96 953.418C1145.09 954.858 1144.37 956.408 1143.79 958.018C1143.17 959.708 1142.72 961.508 1142.41 963.348V963.368C1141.6 968.158 1141.85 973.378 1143.17 978.888C1145.89 990.348 1152.99 1001.66 1163.13 1010.76C1173.26 1019.84 1185.3 1025.66 1196.98 1027.15C1198.92 1027.4 1200.82 1027.52 1202.66 1027.52C1210.42 1027.52 1217.21 1025.37 1222.48 1021.25C1223.72 1020.3 1224.85 1019.23 1225.91 1018.05C1226.24 1017.68 1226.55 1017.31 1226.84 1016.94C1227.3 1016.4 1227.71 1015.83 1228.12 1015.25C1228.62 1014.51 1229.11 1013.72 1229.52 1012.9C1230.41 1011.29 1231.11 1009.58 1231.67 1007.78C1233.42 1002.02 1233.51 995.398 1231.81 988.318V988.298ZM1223.58 1013.09C1223.17 1013.67 1222.71 1014.2 1222.24 1014.74C1221.66 1015.38 1221.06 1015.98 1220.42 1016.54C1217.63 1019 1214.25 1020.71 1210.37 1021.66C1206.53 1022.63 1202.24 1022.84 1197.61 1022.24C1186.92 1020.9 1175.83 1015.51 1166.44 1007.09C1158.25 999.718 1152.22 990.868 1149.16 981.758C1148.69 980.418 1148.31 979.078 1147.98 977.728C1146.72 972.508 1146.58 967.618 1147.44 963.238C1148.08 960.158 1149.22 957.358 1150.87 954.878C1151.43 954.028 1152.07 953.208 1152.75 952.438C1153.35 951.758 1153.99 951.138 1154.67 950.538C1159.15 946.658 1165.26 944.618 1172.34 944.618C1173.97 944.618 1175.64 944.718 1177.38 944.948C1182.73 945.608 1188.18 947.298 1193.46 949.858C1198.75 952.438 1203.86 955.888 1208.55 960.118C1217.94 968.538 1224.5 978.958 1227 989.448C1228.67 996.468 1228.4 1002.93 1226.24 1008.27C1225.56 1010 1224.65 1011.59 1223.58 1013.08V1013.09Z" fill="url(#paint19_linear_66_346)"/>
<path d="M1265.58 930.829C1261.47 922.989 1255.88 915.799 1248.98 909.629C1235.19 897.289 1217.94 890.479 1200.35 890.479H1200.31C1199.55 890.479 1198.78 890.499 1198.02 890.539C1188.84 892.419 1180.48 896.379 1173.42 901.999C1181.39 897.689 1190.55 895.419 1200.32 895.419H1200.36C1208.54 895.419 1216.67 897.029 1224.34 900.039C1232.02 903.069 1239.24 907.549 1245.68 913.309C1258.54 924.849 1266.61 940.159 1268.38 956.429C1269.14 963.449 1268.71 970.299 1267.12 976.719C1270.05 970.549 1272.28 963.609 1273.29 955.909V955.889C1272.34 947.139 1269.7 938.679 1265.57 930.829H1265.58Z" fill="url(#paint20_linear_66_346)"/>
<path d="M1233.44 929.719C1211.15 910.259 1183.59 903.179 1165.37 910.609C1164.73 910.879 1164.11 911.169 1163.49 911.459C1160.06 913.089 1157.03 915.319 1154.47 918.069C1148.59 924.469 1146.09 932.989 1146.61 942.449C1146.67 943.689 1146.8 944.949 1146.98 946.209C1148.55 941.539 1150.43 936.899 1152.51 932.479C1153.52 928.449 1155.36 924.819 1158.08 921.769C1158.16 921.669 1158.25 921.559 1158.35 921.459C1163.82 915.509 1171.95 912.669 1181.34 912.669C1188.83 912.669 1197.11 914.489 1205.45 917.969C1213.79 921.499 1222.21 926.719 1229.97 933.489C1252.86 953.429 1262.42 980.319 1253.48 996.669C1252.55 998.379 1251.42 999.989 1250.05 1001.46C1247.82 1003.89 1245.14 1005.81 1242.1 1007.2C1236.9 1011.33 1232.54 1013.93 1230.54 1015.06C1230.95 1015.04 1231.34 1015 1231.74 1014.96C1234.03 1014.75 1236.24 1014.38 1238.34 1013.83C1244.47 1012.28 1249.84 1009.31 1253.9 1004.85C1256.52 1002.02 1258.46 998.779 1259.76 995.229C1260.81 992.379 1261.45 989.369 1261.74 986.189C1261.82 985.099 1261.86 983.979 1261.86 982.849C1261.86 965.899 1251.68 945.659 1233.42 929.739L1233.44 929.719Z" fill="url(#paint21_linear_66_346)"/>
<g id="robot-eyes">
<g filter="url(#filter1_d_66_346)">
<path d="M986.22 725.249C986.22 749.089 966.63 768.409 942.48 768.409C918.33 768.409 898.74 749.089 898.74 725.249C898.74 719.389 899.92 713.789 902.06 708.699L985.2 716.069C985.86 719.019 986.21 722.099 986.21 725.259L986.22 725.249Z" fill="white"/>
</g>
<g filter="url(#filter2_d_66_346)">
<path d="M1041.58 728.3C1040.34 752.11 1058.89 772.42 1083.01 773.68C1107.13 774.94 1127.7 756.67 1128.94 732.86C1129.25 727.01 1128.36 721.36 1126.48 716.16L1043.07 719.18C1042.26 722.09 1041.75 725.15 1041.58 728.3Z" fill="white"/>
</g>
</g>
<path d="M569.91 994.729C622.72 991.139 666.68 993.689 735.4 931.269C735.4 931.269 742.68 925.099 756.65 941.619C770.63 958.139 764.54 963.359 764.54 963.359C684.66 1035.92 628.04 1034.23 572.85 1037.98L569.91 994.729Z" fill="url(#paint22_linear_66_346)"/>
<path d="M902.53 1020.16C933.38 1018.02 963.53 1019.09 992.2 1020.11C1066.27 1022.74 1124.76 1024.82 1164.08 974.46C1164.08 974.46 1172.46 964.04 1188.43 977.15C1204.4 990.26 1198.25 1001.14 1198.25 1001.14C1145.32 1068.93 1066.69 1066.14 990.66 1063.43C965.22 1062.53 939.46 1061.61 913.72 1062.91L902.53 1020.17V1020.16Z" fill="url(#paint23_linear_66_346)"/>
<path d="M872.06 1078.19L883.69 1099.54L868.12 1117.68L826.02 1138.54C826.02 1138.54 846.63 1104.36 844.17 1086.42C842.78 1046.83 775.09 1037.68 775.09 1037.68L810.7 1014.71L847.68 1024.76L877.84 1075.95L872.06 1078.19Z" fill="url(#paint24_linear_66_346)"/>
<path d="M775.09 1037.68C792.1 1000.08 838.69 972.729 877.82 988.759C914.14 1003.64 945.67 1053.22 929.58 1092.49C914.37 1129.63 865.34 1148.23 826.02 1138.53C826.02 1138.53 871.17 1116.1 865.66 1078.55C856.11 1013.39 775.09 1037.67 775.09 1037.67V1037.68Z" fill="#F34A42"/>
<path d="M839.4 985.569C852.16 982.959 865.36 983.669 877.81 988.769C914.13 1003.64 945.66 1053.22 929.57 1092.5C918.76 1118.9 890.86 1135.93 861.51 1140.09C888.96 1134.79 914.32 1118.23 924.5 1093.36C940.59 1054.08 909.06 1004.51 872.74 989.619C861.93 985.189 850.55 984.079 839.39 985.569H839.4Z" fill="url(#paint25_linear_66_346)" style="mix-blend-mode:luminosity"/>
<path d="M878.35 1031.22C865.25 1037.03 859.28 1051.61 865.01 1063.8C870.74 1075.99 886.01 1081.16 899.11 1075.35C912.21 1069.54 918.18 1054.96 912.45 1042.77C906.72 1030.58 891.45 1025.41 878.35 1031.22Z" fill="#B1B1B1"/>
<path d="M881.54 1029.79C868.44 1035.6 862.47 1050.18 868.2 1062.37C873.93 1074.56 889.2 1079.73 902.3 1073.92C915.4 1068.11 921.37 1053.53 915.64 1041.34C909.91 1029.15 894.64 1023.98 881.54 1029.79Z" fill="#FAF9FF"/>
<path d="M885.56 1036.74C890.52 1034.54 895.94 1034.7 900.39 1036.75C903.79 1038.29 906.62 1040.93 908.27 1044.43C912.09 1052.55 908.11 1062.26 899.38 1066.13C893.51 1068.73 886.98 1068.02 882.18 1064.8C879.84 1063.24 877.91 1061.08 876.67 1058.43C872.85 1050.31 876.83 1040.6 885.56 1036.73V1036.74Z" fill="#B1B1B1"/>
<path d="M885.56 1036.74C890.52 1034.54 895.94 1034.7 900.39 1036.75C902.73 1038.31 904.66 1040.47 905.9 1043.12C909.72 1051.24 905.75 1060.95 897.01 1064.82C892.05 1067.02 886.63 1066.86 882.18 1064.8C879.84 1063.24 877.91 1061.08 876.67 1058.43C872.85 1050.31 876.83 1040.6 885.56 1036.73V1036.74Z" fill="url(#paint26_linear_66_346)"/>
<path d="M169.67 907.8L646.52 290.85C646.52 290.85 1259.67 142.73 1329.76 382.38C1399.85 622.03 1438.8 780.91 1437.77 801.39C1436.74 821.87 1387.99 974.88 1375.18 996.24C1362.37 1017.6 1290.67 1101.99 1257.01 1129.63C1223.36 1157.27 646.41 1285.21 646.41 1285.21L355.4 1122.46L169.66 907.8H169.67Z" fill="url(#paint27_linear_66_346)"/>
<g id="laptop">
<path d="M633.59 1288.24L223.16 1256.57C205.95 1255.49 192.12 1241.97 190.64 1224.79L165.38 918.99C163.55 897.77 204.61 888.42 225.86 889.76L631.21 915.28C648.42 916.36 662.82 929.95 664.3 947.13L688.5 1237.25C690.331 1258.47 654.85 1289.58 633.6 1288.24H633.59Z" fill="url(#paint28_linear_66_346)"/>
<path d="M625.66 1289.06L218.35 1263.42C201.14 1262.34 187.31 1248.82 185.83 1231.64L160.12 932.849C158.29 911.629 175.77 893.759 197.02 895.089L604.33 920.729C621.54 921.809 635.37 935.329 636.85 952.509L662.56 1251.3C664.39 1272.52 646.91 1290.39 625.66 1289.06Z" fill="url(#paint29_linear_66_346)"/>
</g>
<path opacity="0.12" d="M1151.73 563.06L883.57 552C861.45 551.09 843.52 570.27 843.52 594.84V838.22C843.52 862.79 861.45 883.45 883.57 884.36L1151.73 895.42C1173.85 896.33 1191.78 877.15 1191.78 852.58V609.2C1191.78 584.63 1173.85 563.97 1151.73 563.06Z" fill="url(#paint30_linear_66_346)" style="mix-blend-mode:screen"/>
</g>
<defs>
<filter id="filter0_f_66_346" x="1.7" y="147.7" width="1280.6" height="894.553" filterUnits="userSpaceOnUse" color-interpolation-filters="sRGB">
<feFlood flood-opacity="0" result="BackgroundImageFix"/>
<feBlend mode="normal" in="SourceGraphic" in2="BackgroundImageFix" result="shape"/>
<feGaussianBlur stdDeviation="3.65" result="effect1_foregroundBlur_66_346"/>
</filter>
<filter id="filter1_d_66_346" x="853.34" y="663.299" width="178.28" height="150.511" filterUnits="userSpaceOnUse" color-interpolation-filters="sRGB">
<feFlood flood-opacity="0" result="BackgroundImageFix"/>
<feColorMatrix in="SourceAlpha" type="matrix" values="0 0 0 0 0 0 0 0 0 0 0 0 0 0 0 0 0 0 127 0" result="hardAlpha"/>
<feOffset/>
<feGaussianBlur stdDeviation="22.7"/>
<feColorMatrix type="matrix" values="0 0 0 0 1 0 0 0 0 1 0 0 0 0 1 0 0 0 0.75 0"/>
<feBlend mode="normal" in2="BackgroundImageFix" result="effect1_dropShadow_66_346"/>
<feBlend mode="normal" in="SourceGraphic" in2="effect1_dropShadow_66_346" result="shape"/>
</filter>
<filter id="filter2_d_66_346" x="996.121" y="670.76" width="178.279" height="148.382" filterUnits="userSpaceOnUse" color-interpolation-filters="sRGB">
<feFlood flood-opacity="0" result="BackgroundImageFix"/>
<feColorMatrix in="SourceAlpha" type="matrix" values="0 0 0 0 0 0 0 0 0 0 0 0 0 0 0 0 0 0 127 0" result="hardAlpha"/>
<feOffset/>
<feGaussianBlur stdDeviation="22.7"/>
<feColorMatrix type="matrix" values="0 0 0 0 1 0 0 0 0 1 0 0 0 0 1 0 0 0 0.75 0"/>
<feBlend mode="normal" in2="BackgroundImageFix" result="effect1_dropShadow_66_346"/>
<feBlend mode="normal" in="SourceGraphic" in2="effect1_dropShadow_66_346" result="shape"/>
</filter>
<radialGradient id="paint0_radial_66_346" cx="0" cy="0" r="1" gradientUnits="userSpaceOnUse" gradientTransform="translate(1186.12 450.528) scale(475.09 475.09)">
<stop stop-color="#F34A42"/>
<stop offset="1" stop-color="#8B2838"/>
</radialGradient>
<linearGradient id="paint1_linear_66_346" x1="1309.71" y1="618.22" x2="1307.68" y2="772.5" gradientUnits="userSpaceOnUse">
<stop stop-color="#D0D2D3"/>
<stop offset="1" stop-color="#808184"/>
</linearGradient>
<linearGradient id="paint2_linear_66_346" x1="1300.63" y1="819.191" x2="1299.88" y2="639.51" gradientUnits="userSpaceOnUse">
<stop stop-color="#0009FF"/>
<stop offset="1" stop-color="#8B2838"/>
</linearGradient>
<linearGradient id="paint3_linear_66_346" x1="1352.96" y1="769.76" x2="1352.96" y2="589.03" gradientUnits="userSpaceOnUse">
<stop stop-color="#D0D2D3"/>
<stop offset="1" stop-color="#808184"/>
</linearGradient>
<linearGradient id="paint4_linear_66_346" x1="785.81" y1="595.699" x2="793.82" y2="823.889" gradientUnits="userSpaceOnUse">
<stop stop-color="#D0D2D3"/>
<stop offset="1" stop-color="#808184"/>
</linearGradient>
<linearGradient id="paint5_linear_66_346" x1="738.154" y1="809.119" x2="745.711" y2="609.911" gradientUnits="userSpaceOnUse">
<stop stop-color="#0009FF"/>
<stop offset="1" stop-color="#8B2838"/>
</linearGradient>
<linearGradient id="paint6_linear_66_346" x1="778.81" y1="591.31" x2="749.87" y2="933.53" gradientUnits="userSpaceOnUse">
<stop stop-color="white"/>
<stop offset="1" stop-color="#D0D2D3"/>
</linearGradient>
<linearGradient id="paint7_linear_66_346" x1="1133.2" y1="764.82" x2="1073.47" y2="906.29" gradientUnits="userSpaceOnUse">
<stop stop-color="#0009FF"/>
<stop offset="1" stop-color="#8B2838"/>
</linearGradient>
<linearGradient id="paint8_linear_66_346" x1="705.988" y1="559.985" x2="1219.89" y2="808.233" gradientUnits="userSpaceOnUse">
<stop stop-color="#F97F7D"/>
<stop offset="1" stop-color="#8B2838"/>
</linearGradient>
<linearGradient id="paint9_linear_66_346" x1="967.065" y1="316.893" x2="976.138" y2="1702.7" gradientUnits="userSpaceOnUse">
<stop stop-color="#F97F7D"/>
<stop offset="1" stop-color="white"/>
</linearGradient>
<radialGradient id="paint10_radial_66_346" cx="0" cy="0" r="1" gradientUnits="userSpaceOnUse" gradientTransform="translate(1104.14 356.939) scale(342.19 342.19)">
<stop stop-color="#F34A42"/>
<stop offset="1" stop-color="#8B2838"/>
</radialGradient>
<linearGradient id="paint11_linear_66_346" x1="844.21" y1="940.87" x2="849.82" y2="940.87" gradientUnits="userSpaceOnUse">
<stop offset="0.31" stop-color="#3A284F"/>
<stop offset="1"/>
</linearGradient>
<linearGradient id="paint12_linear_66_346" x1="774.482" y1="858.357" x2="774.807" y2="852.756" gradientUnits="userSpaceOnUse">
<stop offset="0.31" stop-color="#3A284F"/>
<stop offset="1"/>
</linearGradient>
<radialGradient id="paint13_radial_66_346" cx="0" cy="0" r="1" gradientUnits="userSpaceOnUse" gradientTransform="translate(769.91 880.34) scale(118.63 118.63)">
<stop stop-color="#F34A42"/>
<stop offset="1" stop-color="#8B2838"/>
</radialGradient>
<linearGradient id="paint14_linear_66_346" x1="771.141" y1="896.5" x2="854.771" y2="896.5" gradientUnits="userSpaceOnUse">
<stop stop-color="#A6A8AB"/>
<stop offset="1" stop-color="#F0F1F1"/>
</linearGradient>
<linearGradient id="paint15_linear_66_346" x1="769.608" y1="939.785" x2="788.937" y2="924.168" gradientUnits="userSpaceOnUse">
<stop offset="0.31" stop-color="#3A284F"/>
<stop offset="1"/>
</linearGradient>
<linearGradient id="paint16_linear_66_346" x1="774.482" y1="935.572" x2="808.777" y2="907.861" gradientUnits="userSpaceOnUse">
<stop offset="0.31" stop-color="#3A284F"/>
<stop offset="1"/>
</linearGradient>
<linearGradient id="paint17_linear_66_346" x1="798.007" y1="915.994" x2="827.929" y2="891.826" gradientUnits="userSpaceOnUse">
<stop offset="0.31" stop-color="#3A284F"/>
<stop offset="1"/>
</linearGradient>
<radialGradient id="paint18_radial_66_346" cx="0" cy="0" r="1" gradientUnits="userSpaceOnUse" gradientTransform="translate(1154.38 1017.58) scale(218.88 218.88)">
<stop stop-color="#F34A42"/>
<stop offset="1" stop-color="#8B2838"/>
</radialGradient>
<linearGradient id="paint19_linear_66_346" x1="529.738" y1="949.425" x2="588.616" y2="893.726" gradientUnits="userSpaceOnUse">
<stop offset="0.31" stop-color="#3A284F"/>
<stop offset="1"/>
</linearGradient>
<linearGradient id="paint20_linear_66_346" x1="1189.7" y1="945.358" x2="1218.1" y2="912.25" gradientUnits="userSpaceOnUse">
<stop offset="0.31" stop-color="#3A284F"/>
<stop offset="1"/>
</linearGradient>
<linearGradient id="paint21_linear_66_346" x1="217.854" y1="859.514" x2="277.765" y2="805.573" gradientUnits="userSpaceOnUse">
<stop offset="0.31" stop-color="#3A284F"/>
<stop offset="1"/>
</linearGradient>
<linearGradient id="paint22_linear_66_346" x1="647.84" y1="886.469" x2="700.2" y2="1158.33" gradientUnits="userSpaceOnUse">
<stop stop-color="#47479A"/>
<stop offset="0.36" stop-color="#312143"/>
<stop offset="0.51" stop-color="#231830"/>
<stop offset="0.83" stop-color="#09060D"/>
<stop offset="1"/>
</linearGradient>
<linearGradient id="paint23_linear_66_346" x1="1048.47" y1="994.52" x2="1075.3" y2="1129.61" gradientUnits="userSpaceOnUse">
<stop stop-color="#47479A"/>
<stop offset="0.36" stop-color="#312143"/>
<stop offset="0.51" stop-color="#231830"/>
<stop offset="0.83" stop-color="#09060D"/>
<stop offset="1"/>
</linearGradient>
<linearGradient id="paint24_linear_66_346" x1="810.151" y1="1134.01" x2="842.495" y2="1023.36" gradientUnits="userSpaceOnUse">
<stop offset="0.31" stop-color="#3A284F"/>
<stop offset="1"/>
</linearGradient>
<linearGradient id="paint25_linear_66_346" x1="886.293" y1="961.938" x2="888.826" y2="1150.67" gradientUnits="userSpaceOnUse">
<stop stop-color="#F97F7D"/>
<stop offset="1" stop-color="#241D2F"/>
</linearGradient>
<linearGradient id="paint26_linear_66_346" x1="898.084" y1="1063.11" x2="885.505" y2="1035.53" gradientUnits="userSpaceOnUse">
<stop offset="0.31" stop-color="#3A284F"/>
<stop offset="1"/>
</linearGradient>
<linearGradient id="paint27_linear_66_346" x1="-108.401" y1="1320.41" x2="875.796" y2="754.091" gradientUnits="userSpaceOnUse">
<stop stop-color="white"/>
<stop offset="1" stop-color="#00AADF" stop-opacity="0"/>
</linearGradient>
<linearGradient id="paint28_linear_66_346" x1="435.867" y1="928.079" x2="413.992" y2="1299.34" gradientUnits="userSpaceOnUse">
<stop stop-color="white"/>
<stop offset="1" stop-color="#808184"/>
</linearGradient>
<linearGradient id="paint29_linear_66_346" x1="565.22" y1="971.586" x2="141.253" y2="1303.65" gradientUnits="userSpaceOnUse">
<stop stop-color="#D0D2D3"/>
<stop offset="1" stop-color="#808184"/>
</linearGradient>
<linearGradient id="paint30_linear_66_346" x1="487.03" y1="861.43" x2="1436.68" y2="614.95" gradientUnits="userSpaceOnUse">
<stop stop-color="white"/>
<stop offset="1" stop-color="#00AADF" stop-opacity="0"/>
</linearGradient>
</defs>
</svg>
