<svg xmlns="http://www.w3.org/2000/svg" viewBox="0 0 32 32"><circle cx="16" cy="16" r="16" fill="#213147"/><path d="M18.5 16.8l2.3 3.6 2.4-1.4-3.2-5-.6-.9c-.3-.4-.8-.4-1.1 0l-1.3 2 1.5 1.7z" fill="#fff"/><path d="M12.1 11.1l-1.3 2L16 21.4l1.5-2.5-4.3-6.8c-.3-.5-.8-.5-1.1 0z" fill="#fff"/><path d="M24.3 13.5l-1.2-2.1c-.2-.3-.5-.5-.9-.5H9.8c-.4 0-.7.2-.9.5L7.7 13.5l2.5 1.4L16 6.7l5.8 8.2 2.5-1.4z" fill="#9DCCED"/><path d="M16 25.3l4.5-2.6-.9-1.3L16 23.5l-3.6-2.1-.9 1.3L16 25.3z" fill="#9DCCED"/></svg>