<svg xmlns="http://www.w3.org/2000/svg" viewBox="0 0 32 32"><circle cx="16" cy="16" r="16" fill="#FF0420"/><path d="M11.3 20.3c-1.3 0-2.4-.4-3.1-1.1-.8-.8-1.1-1.8-1.1-3.1 0-1.5.4-2.8 1.3-3.9.9-1.1 2.1-1.6 3.7-1.6 1.3 0 2.3.4 3.1 1.1.7.7 1.1 1.8 1.1 3 0 1.5-.5 2.9-1.4 4-.9 1.1-2.2 1.6-3.6 1.6zm.2-2c.7 0 1.3-.3 1.7-.9.4-.6.7-1.4.7-2.4 0-.7-.2-1.3-.5-1.7-.4-.4-.9-.6-1.5-.6-.7 0-1.3.3-1.7.9-.5.6-.7 1.4-.7 2.4 0 .7.1 1.3.5 1.7.3.4.8.6 1.5.6zm9.8 1.8h-2.4l1.8-8.8h3.5c1 0 1.8.3 2.3.8.5.5.7 1.1.7 1.9 0 1-.3 1.9-1 2.6-.7.7-1.6 1-2.8 1h-1.5l-.6 2.5zm1.5-4.3h1c.5 0 1-.1 1.3-.4.3-.3.5-.7.5-1.1 0-.3-.1-.6-.3-.8-.2-.2-.6-.3-1-.3h-1l-.5 2.6z" fill="#fff"/></svg>