<svg xmlns="http://www.w3.org/2000/svg" viewBox="0 0 32 32"><circle cx="16" cy="16" r="16" fill="#000"/><defs><linearGradient id="a" x1="6" y1="24" x2="26" y2="8" gradientUnits="userSpaceOnUse"><stop stop-color="#9945FF"/><stop offset=".5" stop-color="#14F195"/><stop offset="1" stop-color="#00D1FF"/></linearGradient></defs><path d="M9.3 20.5a.6.6 0 01.4-.2h14.7a.3.3 0 01.2.5l-2.8 2.8a.6.6 0 01-.4.2H6.7a.3.3 0 01-.2-.5l2.8-2.8zm0-12.1a.6.6 0 01.4-.2h14.7a.3.3 0 01.2.5l-2.8 2.8a.6.6 0 01-.4.2H6.7a.3.3 0 01-.2-.5l2.8-2.8zm13.5 5.8a.6.6 0 00-.4-.2H7.7a.3.3 0 00-.2.5l2.8 2.8a.6.6 0 00.4.2h14.7a.3.3 0 00.2-.5l-2.8-2.8z" fill="url(#a)"/></svg>