<svg xmlns="http://www.w3.org/2000/svg" viewBox="0 0 32 32"><circle cx="16" cy="16" r="16" fill="#2775CA"/><path d="M20.4 18.4c0-2.2-1.3-2.9-4-3.3-1.9-.3-2.3-.8-2.3-1.7s.7-1.5 2-1.5c1.1 0 1.7.4 2 1.4.1.2.2.3.4.3h1c.2 0 .4-.2.3-.4-.2-1.3-1.1-2.4-2.6-2.7V9.2c0-.2-.2-.4-.4-.4h-.9c-.2 0-.4.2-.4.4v1.2c-1.8.3-3 1.5-3 3.1 0 2.1 1.3 2.8 4 3.2 1.7.4 2.3.8 2.3 1.8 0 1-.9 1.7-2.1 1.7-1.6 0-2.2-.7-2.4-1.6-.1-.2-.2-.3-.4-.3h-1c-.2 0-.4.2-.3.4.3 1.5 1.3 2.5 3 2.8v1.3c0 .2.2.4.4.4h.9c.2 0 .4-.2.4-.4v-1.3c1.8-.3 3-1.6 3-3.1z" fill="#fff"/><path d="M12.8 25.2c-5.1-1.8-7.8-7.5-5.9-12.7.9-2.6 3-4.7 5.9-5.6.2-.1.3-.2.3-.5v-.8c0-.2-.1-.4-.3-.3-6 1.9-9.3 8.2-7.4 14.2 1.1 3.6 3.9 6.4 7.4 7.6.2.1.4 0 .4-.3v-.8c0-.2-.2-.4-.4-.5v-.3zm6.4-21c-.2-.1-.4 0-.4.3v.8c0 .2.2.4.4.5 5.1 1.8 7.8 7.5 5.9 12.7-.9 2.6-3 4.7-5.9 5.6-.2.1-.3.2-.3.5v.8c0 .2.1.4.3.3 6-1.9 9.3-8.2 7.4-14.2-1.1-3.6-3.9-6.4-7.4-7.6v.3z" fill="#fff"/></svg>